<?xml version="1.0" standalone="no"?>
<!DOCTYPE svg PUBLIC "-//W3C//DTD SVG 1.1//EN" "http://www.w3.org/Graphics/SVG/1.1/DTD/svg11.dtd" >
<svg xmlns="http://www.w3.org/2000/svg" xmlns:xlink="http://www.w3.org/1999/xlink" version="1.1">
<metadata></metadata>
<defs>
<font id="museo_slab900_italic" horiz-adv-x="630" >
<font-face units-per-em="1000" ascent="750" descent="-250" />
<missing-glyph horiz-adv-x="250" />
<glyph unicode="&#xfb01;" horiz-adv-x="720" d="M39 0l76 390h-70l24 125h70l4 21q11 59 42.5 100t74 59.5t77 25t71.5 6.5q21 0 43 -2l17 -2l-28 -136l-11 2q-7 1 -28 1q-76 0 -84 -50l-5 -25h354l-63 -322q-4 -15 -4 -33q0 -36 39 -36q2 0 6.5 0.5t6.5 0.5h6l-24 -125l-15 -2q-11 -1 -37 -1q-29 0 -48 1.5t-42.5 8 t-37.5 19t-23.5 35.5t-9.5 55q0 24 8 64l41 210h-181l-76 -390h-173zM508 580l26 135h169l-26 -135h-169z" />
<glyph unicode="&#xfb02;" horiz-adv-x="726" d="M39 0l76 390h-70l24 125h70l3 14q23 109 109 158t210 49q88 0 171 -17q39 -7 72 -18l-96 -496q-5 -25 -5 -39q0 -18 9 -25.5t30 -7.5q4 0 8.5 0.5t6.5 0.5h6l-27 -136l-15 -2q-11 -1 -37 -1q-34 0 -59 4.5t-50 17.5t-38 40t-13 68q0 33 7 65l80 411l-21 3q-20 3 -50 3 q-108 0 -125 -77l-3 -15h106l-24 -125h-106l-76 -390h-173z" />
<glyph unicode="&#xfb03;" horiz-adv-x="1085" d="M39 0l76 390h-70l24 125h70l4 21q11 59 42.5 100t74 59.5t77 25t71.5 6.5q21 0 43 -2l17 -2l-28 -136l-11 2q-7 1 -28 1q-76 0 -84 -50l-5 -25h192l4 21q11 59 42.5 100t74 59.5t77 25t71.5 6.5q21 0 43 -2l17 -2l-28 -136l-11 2q-7 1 -28 1q-76 0 -84 -50l-5 -25h354 l-63 -322q-4 -15 -4 -33q0 -36 39 -36q2 0 6.5 0.5t6.5 0.5h6l-24 -125l-15 -2q-11 -1 -37 -1q-29 0 -48 1.5t-42.5 8t-37.5 19t-23.5 35.5t-9.5 55q0 24 8 64l41 210h-181l-76 -390h-173l76 390h-192l-76 -390h-173zM873 580l26 135h169l-26 -135h-169z" />
<glyph unicode="&#xfb04;" horiz-adv-x="1091" d="M39 0l76 390h-70l24 125h70l4 21q11 59 42.5 100t74 59.5t77 25t71.5 6.5q21 0 43 -2l17 -2l-28 -136l-11 2q-7 1 -28 1q-76 0 -84 -50l-5 -25h192l3 14q23 109 109 158t210 49q88 0 171 -17q39 -7 72 -18l-96 -496q-5 -25 -5 -39q0 -18 9 -25.5t30 -7.5q4 0 8.5 0.5 t6.5 0.5h6l-27 -136l-15 -2q-11 -1 -37 -1q-34 0 -59 4.5t-50 17.5t-38 40t-13 68q0 33 7 65l80 411l-21 3q-19 3 -50 3q-108 0 -125 -77l-3 -15h106l-24 -125h-106l-76 -390h-173l76 390h-192l-76 -390h-173z" />
<glyph horiz-adv-x="0" />
<glyph horiz-adv-x="333" />
<glyph unicode=" "  horiz-adv-x="250" />
<glyph unicode="&#x09;" horiz-adv-x="250" />
<glyph unicode="&#xa0;" horiz-adv-x="250" />
<glyph unicode="!" horiz-adv-x="299" d="M60 221l80 494h180l-112 -494h-148zM14 0l29 150h158l-29 -150h-158z" />
<glyph unicode="&#x22;" horiz-adv-x="417" d="M279 490l47 240h122l-47 -240h-122zM88 490l47 240h122l-47 -240h-122z" />
<glyph unicode="#" horiz-adv-x="705" d="M42 0l66 180h-97l42 120h98l36 95h-96l43 120h96l74 200h137l-74 -200h108l74 200h137l-74 -200h102l-43 -120h-102l-36 -95h100l-43 -120h-100l-66 -180h-137l66 180h-108l-66 -180h-137zM288 300h108l36 95h-108z" />
<glyph unicode="$" horiz-adv-x="574" d="M-2 104l95 113q22 -19 44 -31q54 -32 107 -32q39 0 71.5 16t32.5 46q0 25 -27.5 45t-67 37.5t-78.5 39t-66.5 61t-27.5 93.5q0 89 69 149t164 69l18 105h109l-18 -109q67 -10 126 -45q24 -13 39 -30l-87 -121q-23 17 -46 26q-54 25 -100 25q-37 0 -68 -17t-31 -46 q0 -25 27.5 -45t67 -37t79.5 -38.5t67.5 -60t27.5 -91.5q0 -88 -69.5 -152t-175.5 -70l-16 -103h-109l18 110q-76 14 -134 56q-24 17 -41 37z" />
<glyph unicode="%" horiz-adv-x="880" d="M249 382q-73 0 -119 43.5t-46 110.5q0 74 62 132.5t140 58.5q73 0 119.5 -45t46.5 -113q0 -74 -63 -130.5t-140 -56.5zM34 0l674 715h159l-674 -715h-159zM262 502q24 0 43 18t19 43q0 19 -13.5 31.5t-36.5 12.5t-42.5 -19t-19.5 -43q0 -19 13.5 -31t36.5 -12zM452 142 q0 74 62 132.5t140 58.5q73 0 119.5 -45t46.5 -113q0 -74 -63 -130.5t-140 -56.5q-73 0 -119 43.5t-46 110.5zM580 151q0 -19 13.5 -31t36.5 -12q24 0 43 18t19 43q0 19 -13.5 31.5t-36.5 12.5t-42.5 -19t-19.5 -43z" />
<glyph unicode="&#x26;" horiz-adv-x="682" d="M16 194q0 59 45 113t111 74v2q-19 10 -31 25q-31 37 -31 90q0 59 24.5 105t64 72t85 39t93.5 13q40 0 76 -9q22 -5 32 -10l-64 -130l-11 2q-14 2 -27 2q-38 0 -68.5 -23.5t-30.5 -65.5q0 -26 15.5 -42.5t44.5 -16.5h87l18 93h172l-18 -93h89l-28 -140h-89l-13 -74 q-22 -114 -97 -173t-196 -59q-118 0 -185.5 57.5t-67.5 148.5zM200 207q0 -28 21 -46.5t54 -18.5q49 0 79.5 24t37.5 64l12 64h-98q-41 0 -73.5 -20.5t-32.5 -66.5z" />
<glyph unicode="'" horiz-adv-x="229" d="M88 490l47 240h125l-47 -240h-125z" />
<glyph unicode="(" horiz-adv-x="358" d="M248 -95h-137q-59 135 -59 276q0 333 214 569h147q-211 -260 -211 -573q0 -146 46 -272z" />
<glyph unicode=")" horiz-adv-x="360" d="M105 -95h-147q211 260 211 573q0 146 -46 272h137q59 -135 59 -276q0 -333 -214 -569z" />
<glyph unicode="*" horiz-adv-x="495" d="M192 309l-110 90l92 86l1 2l-101 21l73 140l93 -45l11 112h152l-34 -112l112 46l20 -146l-120 -25l-1 -2l59 -80l-131 -88l-40 98h-2z" />
<glyph unicode="+" d="M189 0l43 222h-205l25 130h205l43 223h136l-43 -223h205l-25 -130h-205l-43 -222h-136z" />
<glyph unicode="," horiz-adv-x="300" d="M60 166h169l-167 -277h-129z" />
<glyph unicode="-" horiz-adv-x="454" d="M53 212l29 150h314l-29 -150h-314z" />
<glyph unicode="." horiz-adv-x="286" d="M5 0l31 164h164l-31 -164h-164z" />
<glyph unicode="/" horiz-adv-x="475" d="M-33 -42l408 792h154l-409 -792h-153z" />
<glyph unicode="0" horiz-adv-x="638" d="M49 238q0 48 7.5 99.5t22.5 107.5t41.5 106t61.5 89.5t85.5 63t110.5 23.5q237 0 237 -248q0 -58 -10 -120.5t-35 -130t-61.5 -120t-94.5 -86.5t-129 -34q-236 0 -236 250zM230 246q0 -103 59 -103q34 0 62.5 35t45.5 87t26.5 106t9.5 98q0 103 -60 103 q-45 0 -79.5 -60.5t-49 -132.5t-14.5 -133z" />
<glyph unicode="1" horiz-adv-x="543" d="M-4 0l26 140h152l60 305q7 33 8 38l4 17h-2l-9 -12q-23 -23 -27 -26l-54 -43l-83 113l234 183h151l-111 -575h152l-28 -140h-473z" />
<glyph unicode="2" horiz-adv-x="608" d="M500 0h-501q0 70 22 129t57 98.5t77 73t84.5 58.5t77.5 48t57 49.5t22 54.5q0 30 -19 45.5t-48 15.5q-44 0 -89 -41q-21 -20 -37 -41l-116 92q32 44 70 73q94 72 196 72q93 0 162.5 -52t69.5 -142q0 -51 -26.5 -97.5t-66 -79.5t-86.5 -65.5t-88.5 -56t-71 -48.5 t-34.5 -46h165l17 85h150z" />
<glyph unicode="3" horiz-adv-x="592" d="M-4 79l92 122q14 -13 41 -29q52 -29 104 -29t85.5 27.5t33.5 67.5q0 30 -26.5 48.5t-71.5 18.5q-17 0 -24 -1q-4 -1 -12 -1l-21 80l153 164q14 13 24 21l12 8v2q-10 0 -15 -1q-18 -2 -31 -2h-85l-15 -75h-150l42 215h472l-24 -124l-168 -177q53 -18 89 -58.5t36 -103.5 q0 -102 -84.5 -183t-221.5 -81q-95 0 -175 46q-34 20 -60 45z" />
<glyph unicode="4" horiz-adv-x="634" d="M-2 173l19 106l356 436h219l-79 -407h85l-26 -135h-85l-34 -173h-173l34 173h-316zM202 308h138l34 173q6 30 12 48l9 26h-4q-11 -19 -13 -22q-17 -28 -31 -44l-145 -179v-2z" />
<glyph unicode="5" horiz-adv-x="594" d="M-6 82l95 117q16 -15 41 -28q50 -28 101 -28q52 0 89.5 28t37.5 74q0 75 -100 75q-44 0 -74 -11q-14 -4 -30 -11l-92 38l106 379h417l-42 -215h-150l15 75h-116l-24 -87l-9 -25q-1 -2 -4 -11h2l18 3q17 3 43 3q96 0 159.5 -56.5t63.5 -154.5q0 -108 -92 -183.5 t-222 -75.5q-97 0 -173 47q-33 20 -60 47z" />
<glyph unicode="6" horiz-adv-x="626" d="M42 258q0 63 18.5 129t55.5 126.5t87 108.5t118.5 76.5t144.5 28.5q65 0 118 -17q24 -7 42 -17l-64 -141q-12 5 -29 10q-38 10 -72 10q-65 0 -112.5 -33.5t-75.5 -89.5h2q33 25 102 25q97 0 150 -61t53 -148q0 -109 -78 -193t-201 -84q-111 0 -185 70.5t-74 199.5z M220 253q0 -46 28 -78t66 -32q39 0 63 33.5t24 75.5q0 81 -91 81q-90 0 -90 -80z" />
<glyph unicode="7" horiz-adv-x="573" d="M9 0l373 538q11 16 23 28l10 10v2q-10 0 -15 -1q-18 -2 -37 -2h-123l-15 -75h-150l42 215h519l-24 -122l-415 -593h-188z" />
<glyph unicode="8" horiz-adv-x="620" d="M21 182q0 62 38.5 111t106.5 94q-56 50 -56 119q0 87 71 154t192 67q100 0 165 -49t65 -130q0 -16 -2.5 -31t-8.5 -29t-11 -25.5t-15 -24.5t-15.5 -21t-17.5 -20l-16 -16t-15.5 -15t-12.5 -12q71 -51 71 -133q0 -90 -81 -161.5t-212 -71.5q-115 0 -180.5 56t-65.5 138z M379 414q50 61 50 107q0 56 -63 56q-36 0 -60 -19t-24 -50t24 -50.5t73 -43.5zM201 208q0 -70 79 -70q39 0 69.5 20t30.5 56q0 11 -3 21t-11 18.5t-13.5 14.5t-19.5 14t-20.5 11.5t-24 12t-22.5 11.5q-65 -57 -65 -109z" />
<glyph unicode="9" horiz-adv-x="623" d="M25 22l64 141q12 -5 29 -10q38 -10 68 -10q128 0 189 126h-2q-33 -25 -102 -25q-96 0 -150 60.5t-54 145.5q0 109 78 193t201 84q111 0 185 -70.5t74 -199.5q0 -63 -18.5 -129t-55.5 -126.5t-87 -108.5t-118.5 -76.5t-144.5 -28.5q-63 0 -114 17q-21 7 -42 17zM338 385 q89 0 89 77q0 46 -28 78t-66 32t-62.5 -33.5t-24.5 -75.5q0 -78 92 -78z" />
<glyph unicode=":" horiz-adv-x="308" d="M83 351l32 164h164l-32 -164h-164zM14 0l32 164h164l-32 -164h-164z" />
<glyph unicode=";" horiz-adv-x="315" d="M98 351l32 164h158l-32 -164h-158zM-66 -111l127 277h169l-167 -277h-129z" />
<glyph unicode="&#x3c;" d="M39 234v107l504 223v-145l-330 -131v-2l330 -130v-145z" />
<glyph unicode="=" d="M59 337v130h506v-130h-506zM59 107v130h506v-130h-506z" />
<glyph unicode="&#x3e;" d="M83 11v145l330 130v2l-330 131v145l504 -223v-107z" />
<glyph unicode="?" horiz-adv-x="515" d="M123 221l9 50q7 40 30.5 73.5t52.5 55t56.5 41t46.5 40.5t19 43t-17 35.5t-43 13.5q-35 0 -71 -21q-22 -14 -32 -22l-79 127q25 20 60 37q74 36 150 36q88 0 151 -48t63 -132q0 -49 -21.5 -90t-53 -67t-63 -48t-56.5 -44t-29 -44l-7 -36h-166zM85 0l29 150h158l-29 -150 h-158z" />
<glyph unicode="@" horiz-adv-x="841" d="M16 188q0 113 60.5 211t169 157t239.5 59q128 0 192.5 -55.5t64.5 -145.5q0 -27 -7 -64l-33 -173h74l-23 -119h-268q-100 0 -154.5 47.5t-54.5 115.5q0 80 68.5 137.5t199.5 57.5h44q1 1 1 3v5q0 25 -37.5 40.5t-84.5 15.5q-115 0 -197.5 -92.5t-82.5 -200.5 q0 -82 54.5 -135.5t155.5 -53.5l-25 -128q-159 0 -257.5 86.5t-98.5 231.5zM448 229q0 -52 55 -52h39l26 134h-37q-37 0 -60 -25t-23 -57z" />
<glyph unicode="A" horiz-adv-x="734" d="M-46 0l25 130h58l309 585h204l81 -585h59l-25 -130h-294l25 130h62l-8 95h-184l-46 -95h62l-26 -130h-302zM330 361h107l-11 132q-3 25 -1 54q1 7 1 21h-4q-2 -10 -6 -21q-16 -41 -22 -54z" />
<glyph unicode="B" horiz-adv-x="710" d="M-8 0l25 130h79l89 455h-80l25 130h304q82 0 128 -14q57 -17 88.5 -57t31.5 -96q0 -54 -29 -99.5t-82 -72.5v-2q86 -32 86 -140q0 -76 -44 -131t-115 -83q-57 -20 -140 -20h-366zM335 438h90q35 0 56 24t21 57q0 32 -17 45q-16 11 -47 11h-77zM277 140h95q41 0 68 21 q37 31 37 78q0 59 -63 59h-106z" />
<glyph unicode="C" horiz-adv-x="738" d="M43 305q0 173 127 297.5t306 124.5q41 0 86.5 -6.5t92 -21t72.5 -44t18 -68.5l-23 -116h-158l10 52q4 21 -15 34t-40.5 16.5t-45.5 3.5q-111 0 -178 -82.5t-67 -180.5q0 -77 41 -126.5t122 -49.5q107 0 118 54l10 52h160l-20 -106q-7 -41 -37.5 -72t-73.5 -47 t-85.5 -23.5t-83.5 -7.5q-149 0 -242.5 88t-93.5 229z" />
<glyph unicode="D" horiz-adv-x="788" d="M-7 0l25 130h79l88 455h-79l25 130h301q92 0 161 -23q175 -62 175 -266q0 -132 -72 -243.5t-191 -156.5q-71 -26 -161 -26h-351zM278 140h62q63 0 111 24q62 31 99.5 100t37.5 149q0 112 -78 147q-34 15 -86 15h-62z" />
<glyph unicode="E" horiz-adv-x="661" d="M-8 0l25 130h79l89 455h-80l25 130h551l-41 -211h-150l14 71h-142l-28 -145h209l-28 -140h-209l-29 -150h154l14 71h150l-41 -211h-562z" />
<glyph unicode="F" horiz-adv-x="611" d="M-8 0l25 130h79l89 455h-80l25 130h533l-41 -211h-150l12 61h-124l-30 -155h210l-28 -140h-210l-27 -140h90l-25 -130h-348z" />
<glyph unicode="G" horiz-adv-x="770" d="M43 304q0 175 129.5 299t314.5 124q42 0 88 -6.5t93.5 -21t74 -44t18.5 -68.5l-23 -116h-158l10 52q4 21 -15.5 34t-42.5 16.5t-48 3.5q-117 0 -186.5 -83t-69.5 -183q0 -173 178 -173q47 0 88.5 12.5t46.5 39.5l10 49h-116l26 130h275l-46 -232q-7 -40 -38.5 -70 t-76.5 -46.5t-92.5 -24.5t-95.5 -8q-155 0 -249.5 87.5t-94.5 228.5z" />
<glyph unicode="H" horiz-adv-x="875" d="M-7 0l25 130h79l88 455h-79l25 130h339l-25 -130h-80l-31 -160h256l31 160h-80l25 130h339l-25 -130h-80l-89 -455h80l-25 -130h-339l25 130h80l30 155h-256l-30 -155h80l-25 -130h-338z" />
<glyph unicode="I" horiz-adv-x="440" d="M-7 0l25 130h79l88 455h-79l25 130h339l-25 -130h-81l-88 -455h80l-25 -130h-338z" />
<glyph unicode="J" horiz-adv-x="581" d="M-7 177q0 28 8 66l8 29h169l-6 -26q-7 -35 -7 -50q0 -53 48 -53q55 0 71 75l72 367h-94l25 130h343l-25 -130h-70l-73 -375q-22 -108 -92 -165t-163 -57q-88 0 -151 50.5t-63 138.5z" />
<glyph unicode="K" horiz-adv-x="752" d="M-7 0l25 130h79l88 455h-79l25 130h311l-25 -130h-53l-29 -151h56l134 151h-49l25 130h292l-25 -130h-60l-193 -215v-2q5 -3 13 -13q13 -17 22 -41l45 -137q9 -29 18 -39t34 -10q13 0 20 1q4 1 12 1l-24 -130q-19 -3 -74 -3q-73 0 -106 29.5t-48 78.5l-47 156 q-10 33 -49 33h-23l-32 -164h75l-25 -130h-333z" />
<glyph unicode="L" horiz-adv-x="634" d="M-6 0l25 130h79l87 445h-80l27 140h339l-27 -140h-81l-84 -435h154l21 105h150l-48 -245h-562z" />
<glyph unicode="M" horiz-adv-x="987" d="M-19 0l25 130h77l122 455h-78l25 130h276l51 -354q3 -20 6 -53q1 -10 0 -21h2q2 7 8 21q6 11 26 53l189 354h286l-25 -130h-78l-56 -455h78l-25 -130h-321l25 130h71l33 257q7 35 12 51l8 29h-4q-8 -18 -11 -27q-22 -48 -23 -49l-145 -261h-150l-43 261q-4 20 -4 49v27 h-4l-3 -29q-1 -4 -4 -23t-5 -28l-67 -257h71l-25 -130h-320z" />
<glyph unicode="N" horiz-adv-x="858" d="M-8 0l25 130h79l89 455h-80l25 130h256l153 -386q7 -14 13 -46q3 -12 3 -24h4q0 9 2 27q2 14 8 50l49 249h-84l25 130h343l-25 -130h-80l-114 -585h-176l-155 385q-8 23 -12 45q-2 8 -4 24h-4q0 -8 -2 -26q-2 -8 -4 -25t-3 -25l-48 -248h84l-25 -130h-342z" />
<glyph unicode="O" horiz-adv-x="818" d="M43 307q0 170 128.5 295t300.5 125q145 0 236 -88t91 -224q0 -113 -60 -212t-159.5 -157t-210.5 -58q-145 0 -235.5 90t-90.5 229zM223 317q0 -78 43.5 -126t113.5 -48q91 0 164.5 77t73.5 184q0 75 -44 121.5t-114 46.5q-92 0 -164.5 -74.5t-72.5 -180.5z" />
<glyph unicode="P" horiz-adv-x="686" d="M-7 0l25 130h80l89 455h-80l25 130h335q68 0 115 -16q54 -21 87 -72t33 -121q0 -84 -47.5 -155t-122.5 -101q-47 -19 -124 -19h-111l-20 -101h81l-25 -130h-340zM324 371h82q33 0 59 14q26 15 41.5 45t15.5 66q0 46 -25 65q-20 14 -50 14h-83z" />
<glyph unicode="Q" horiz-adv-x="818" d="M43 307q0 111 58.5 208.5t155.5 154.5t205 57q151 0 244 -87.5t93 -224.5q0 -151 -111 -274l60 -61l-110 -102l-59 70q-86 -60 -200 -60q-152 0 -244 89.5t-92 229.5zM223 317q0 -78 44 -126t114 -48q49 0 93 23l-82 92l108 100l79 -90q39 63 39 136q0 75 -44 121.5 t-114 46.5q-92 0 -164.5 -74.5t-72.5 -180.5z" />
<glyph unicode="R" horiz-adv-x="741" d="M-7 0l25 130h80l89 455h-80l25 130h341q75 0 117 -18q104 -47 104 -172q0 -71 -37.5 -138t-114.5 -95v-3l15 -16q14 -19 23 -41l20 -55q10 -29 19 -39t32 -10q13 0 20 1q3 1 10 1l-24 -130q-19 -3 -71 -3q-72 0 -105.5 29.5t-48.5 78.5l-37 113q-11 33 -49 33h-44 l-24 -121h74l-25 -130h-334zM328 391h75q49 0 80 29t31 81q0 39 -21 57q-20 17 -60 17h-69z" />
<glyph unicode="S" d="M20 174l15 80h160l-10 -49q-8 -33 24 -47.5t79 -14.5q53 0 79.5 22.5t26.5 52.5q0 21 -22.5 38t-55.5 28t-72.5 28.5t-72.5 38.5t-55.5 59t-22.5 89q0 112 86 170t213 58q38 0 76 -6.5t77 -21.5t59 -46.5t12 -74.5l-19 -94h-160l9 46q5 23 -17 32.5t-58 9.5 q-99 0 -99 -62q0 -27 31 -46t75.5 -34.5t89 -36t75.5 -63t31 -103.5q0 -113 -89 -176t-220 -63q-33 0 -68 5.5t-70.5 19.5t-61.5 34.5t-39.5 53.5t-5.5 73z" />
<glyph unicode="T" horiz-adv-x="698" d="M120 0l25 130h80l87 445h-86l-19 -101h-150l47 241h649l-47 -241h-150l19 101h-84l-87 -445h80l-25 -130h-339z" />
<glyph unicode="U" horiz-adv-x="824" d="M96 212q0 30 11 86l56 287h-80l25 130h339l-25 -130h-80l-55 -287q-10 -53 -10 -65q0 -90 105 -90q67 0 108 41q29 32 38 79l62 322h-80l25 130h339l-25 -130h-80l-63 -327q-29 -145 -133 -217q-80 -53 -194 -53q-121 0 -202 58t-81 166z" />
<glyph unicode="V" horiz-adv-x="732" d="M216 0l-90 585h-60l25 130h311l-25 -130h-70l33 -314q3 -18 1 -52l-2 -26h4l8 26q11 33 21 52l155 314h-70l25 130h321l-25 -130h-60l-318 -585h-184z" />
<glyph unicode="W" horiz-adv-x="1036" d="M158 0l-28 585h-60l25 130h312l-25 -130h-83l4 -317q0 -21 -2 -51l-3 -24h4q4 16 7 24q12 36 19 51l197 447h138l23 -447q2 -28 0 -51l-2 -24h4q2 12 6 24q7 28 17 51l128 317h-83l25 130h322l-25 -130h-60l-256 -585h-197l-20 366q-1 21 1 53l3 26h-4l-8 -26 q-9 -26 -20 -53l-162 -366h-197z" />
<glyph unicode="X" horiz-adv-x="726" d="M-23 0l25 130h57l224 242l-122 213h-65l25 130h297l-25 -130h-62l52 -92q9 -17 12 -23l5 -10h2l8 9q5 8 20 24l81 92h-57l25 130h291l-25 -130h-57l-221 -239l124 -216h63l-25 -130h-297l25 130h64l-53 93q-10 18 -13 25l-5 11h-2l-9 -11q-10 -10 -21 -25l-82 -93h59 l-25 -130h-293z" />
<glyph unicode="Y" horiz-adv-x="671" d="M108 0l25 130h80l32 163l-118 292h-61l25 130h289l-25 -130h-60l47 -132q6 -16 7 -25l2 -10h2q2 6 6 10q2 4 8 12t9 13l99 132h-60l25 130h302l-25 -130h-61l-232 -292l-32 -163h80l-25 -130h-339z" />
<glyph unicode="Z" horiz-adv-x="664" d="M-7 0l21 110l381 432q17 18 26 25l13 9v2q-9 0 -14 -1q-16 -2 -29 -2h-133l-20 -101h-150l47 241h549l-21 -108l-383 -434q-11 -12 -26 -24q-3 -2 -7.5 -6t-5.5 -4v-2l14 2q8 1 29 1h150l21 105h150l-48 -245h-564z" />
<glyph unicode="[" horiz-adv-x="365" d="M8 -95l165 845h246l-24 -120h-102l-117 -605h102l-24 -120h-246z" />
<glyph unicode="\" horiz-adv-x="461" d="M224 -42l-103 792h138l103 -792h-138z" />
<glyph unicode="]" horiz-adv-x="364" d="M-19 25h102l117 605h-102l24 120h246l-165 -845h-245z" />
<glyph unicode="^" d="M0 241l203 474h107l203 -474h-145l-112 300l-111 -300h-145z" />
<glyph unicode="_" horiz-adv-x="586" d="M-63 0h596l-25 -130h-595z" />
<glyph unicode="`" horiz-adv-x="484" d="M191 761l-122 150h171l87 -150h-136z" />
<glyph unicode="a" horiz-adv-x="583" d="M-9 124q0 53 33 93.5t86 61.5t107.5 31t108.5 10h7l2 11q2 14 2 19q0 42 -64 42q-42 0 -101 -23q-26 -11 -51 -24l-35 125q33 17 68 29q77 28 153 28q35 0 67.5 -7.5t64 -24.5t50.5 -49.5t19 -77.5q0 -31 -17.5 -109t-17.5 -99q0 -36 39 -36q2 0 6.5 0.5t6.5 0.5h6 l-24 -125q-1 0 -3 -0.5t-5 -1t-5 -0.5q-11 -1 -52 -1q-27 0 -43.5 1.5t-39 8.5t-37 23.5t-20.5 42.5h-2q-19 -25 -43 -42q-57 -43 -121 -43q-61 0 -103 35t-42 101zM161 153q0 -41 39 -41q34 0 67.5 32.5t42.5 66.5l3 12h-16q-18 0 -37.5 -3t-43.5 -9.5t-39.5 -21.5 t-15.5 -36z" />
<glyph unicode="b" horiz-adv-x="646" d="M15 0l114 590h-70l24 125h243l-38 -194q-1 -4 -3 -16t-4 -17q-1 -3 -2.5 -7t-1.5 -6h2q55 52 135 52q93 0 146 -60.5t53 -163.5q0 -135 -86 -225t-196 -90q-100 0 -145 63h-2q0 -5 -1 -8q0 -1 -0.5 -8.5t-2.5 -12.5l-4 -22h-161zM228 221q0 -39 20.5 -64.5t60.5 -25.5 q48 0 88.5 44t40.5 115q0 42 -21.5 66.5t-59.5 24.5q-45 0 -87 -44.5t-42 -115.5z" />
<glyph unicode="c" horiz-adv-x="576" d="M15 219q0 118 93 213t241 95q37 0 73.5 -7t71.5 -22t53 -44t10 -68l-14 -72h-147l6 28q4 18 -14.5 29.5t-50.5 11.5q-65 0 -106 -47.5t-41 -103.5q0 -43 27.5 -72t85.5 -29q54 0 116 30q30 16 48 29l44 -127q-30 -23 -58 -37q-78 -38 -168 -38q-129 0 -199.5 66 t-70.5 165z" />
<glyph unicode="d" horiz-adv-x="674" d="M17 209q0 139 85.5 228.5t203.5 89.5q95 0 129 -51h2q0 5 1 8l2 15l17 91h-69l24 125h243l-101 -522q-4 -15 -4 -33q0 -36 39 -36q2 0 6.5 0.5t6.5 0.5h6l-24 -125l-15 -2q-11 -1 -42 -1q-26 0 -40.5 0.5t-35.5 4.5t-33 11.5t-23 22.5t-16 37h-2q-27 -38 -71.5 -61.5 t-88.5 -23.5q-94 0 -147 59.5t-53 161.5zM192 222q0 -42 21.5 -66.5t59.5 -24.5q45 0 86.5 45.5t41.5 113.5q0 40 -20 65.5t-60 25.5q-48 0 -88.5 -44t-40.5 -115z" />
<glyph unicode="e" horiz-adv-x="563" d="M17 213q0 134 85 224t212 90q107 0 163.5 -55t56.5 -147q0 -33 -9 -67q-6 -22 -10 -32h-324v-3q0 -1 -0.5 -3t-0.5 -4q0 -39 27.5 -62t73.5 -23q47 0 105 26q24 10 48 26l44 -128q-27 -18 -60 -33q-74 -34 -148 -34q-126 0 -194.5 64.5t-68.5 160.5zM212 321h152q0 5 1 8 q1 4 1 12q0 25 -14.5 40.5t-40.5 15.5q-69 0 -99 -76z" />
<glyph unicode="f" horiz-adv-x="391" d="M39 0l76 390h-70l24 125h70l4 21q11 59 42.5 100t74 59.5t77 25t71.5 6.5q21 0 43 -2l17 -2l-28 -136l-11 2q-7 1 -28 1q-76 0 -84 -50l-5 -25h106l-24 -125h-106l-76 -390h-173z" />
<glyph unicode="g" horiz-adv-x="657" d="M-7 -157l66 119q12 -8 36 -17q48 -16 105 -16t91 23.5t48 80.5q6 25 7 28l3 10h-1q-54 -56 -126 -56q-98 0 -149 60.5t-51 155.5q0 116 75.5 206t199.5 90q71 0 116 -33q19 -15 28 -34h2v4q0 1 2 11q3 14 20.5 27t43.5 13h158l-25 -125h-38q-22 0 -25 -19l-65 -329 q-13 -67 -45 -117.5t-75.5 -79t-90 -42t-97.5 -13.5q-87 0 -159 26q-31 10 -54 27zM197 246q0 -39 19.5 -63t59.5 -24q53 0 86 47.5t33 101.5q0 75 -83 75q-52 0 -83.5 -39.5t-31.5 -97.5z" />
<glyph unicode="h" horiz-adv-x="676" d="M15 0l114 590h-69l24 125h243l-45 -231q-3 -15 -8 -31q-5 -12 -5 -13h2q16 21 46 44q58 43 132 43q67 0 108.5 -37.5t41.5 -106.5q0 -34 -18 -120t-18 -103q0 -36 39 -36q2 0 6.5 0.5t6.5 0.5h6l-24 -125q-1 0 -2.5 -0.5t-3 -0.5t-4 -0.5t-4.5 -0.5q-11 -1 -47 -1 q-25 0 -42.5 1.5t-39.5 8.5t-36 19t-23.5 35t-9.5 55t17 114t17 97q0 43 -49 43q-51 0 -88.5 -44t-50.5 -108l-43 -218h-173z" />
<glyph unicode="i" horiz-adv-x="367" d="M152 580l26 135h169l-26 -135h-169zM64 116q0 24 8 64l41 210h-70l24 125h243l-63 -322q-4 -15 -4 -33q0 -36 39 -36q2 0 6.5 0.5t6.5 0.5h6l-24 -125l-15 -2q-11 -1 -37 -1q-29 0 -48 1.5t-42.5 8t-37.5 19t-23.5 35.5t-9.5 55z" />
<glyph unicode="j" horiz-adv-x="343" d="M155 580l26 135h169l-26 -135h-169zM39 -8l77 398h-71l24 125h244l-100 -516q-10 -50 -34 -88.5t-52 -60.5t-63 -35.5t-62.5 -18t-54.5 -4.5q-33 0 -44 1l-17 2l26 132q1 -1 6 -1h16q93 0 105 66z" />
<glyph unicode="k" horiz-adv-x="611" d="M15 0l114 590h-70l24 125h243l-76 -392h50l71 67h-51l24 125h265l-24 -125h-49l-123 -118v-2q7 -7 10 -12q10 -11 20 -36l27 -60q17 -37 51 -37h28l-24 -125q-17 -3 -64 -3q-21 0 -38 2.5t-29 5.5t-22.5 10.5t-16.5 11.5t-13 16t-9 15.5t-8.5 18.5t-7.5 18l-32 78 q-11 27 -33 27h-26l-39 -200h-172z" />
<glyph unicode="l" horiz-adv-x="339" d="M37 125q0 33 7 65l78 400h-70l24 125h243l-98 -510q-5 -25 -5 -39q0 -18 9 -25.5t30 -7.5q4 0 8.5 0.5t6.5 0.5h6l-27 -136l-15 -2q-11 -1 -37 -1q-34 0 -59 4.5t-50 17.5t-38 40t-13 68z" />
<glyph unicode="m" horiz-adv-x="982" d="M39 0l72 369q5 21 -18 21h-48l24 125h163q62 0 62 -46q0 -17 -8 -41h2q21 27 49 50q61 49 126 49q45 0 79 -27t42 -78h2q68 105 177 105q62 0 101.5 -37t39.5 -108q0 -33 -18 -118.5t-18 -103.5q0 -36 39 -36q2 0 6.5 0.5t6.5 0.5h6l-24 -125q-1 0 -2.5 -0.5t-3 -0.5 t-4 -0.5t-4.5 -0.5q-11 -1 -47 -1q-25 0 -42.5 1.5t-39.5 8.5t-36 19t-23.5 35t-9.5 55q0 31 17.5 116t17.5 100q0 20 -8 29t-31 9q-44 0 -75.5 -44.5t-44.5 -112.5l-42 -213h-173l60 305q4 16 4 31q0 34 -37 34q-49 0 -80.5 -48t-45.5 -119l-40 -203h-173z" />
<glyph unicode="n" horiz-adv-x="700" d="M39 0l72 368q4 22 -18 22h-48l24 125h164q61 0 61 -47q0 -18 -8 -40h2q17 25 47 50q61 49 139 49q66 0 107.5 -37t41.5 -108q0 -35 -18 -119.5t-18 -102.5q0 -36 39 -36q2 0 6.5 0.5t6.5 0.5h6l-24 -125q-1 0 -2.5 -0.5t-3 -0.5t-4 -0.5t-4.5 -0.5q-11 -1 -47 -1 q-25 0 -42.5 1.5t-39.5 8.5t-36 19t-23.5 35t-9.5 55t17 114t17 97q0 43 -49 43q-51 0 -88.5 -44t-50.5 -108l-43 -218h-173z" />
<glyph unicode="o" horiz-adv-x="635" d="M16 219q0 132 99 220t232 88q112 0 184.5 -63.5t72.5 -167.5q0 -132 -99.5 -220t-231.5 -88q-112 0 -184.5 63.5t-72.5 167.5zM191 227q0 -44 26 -69.5t69 -25.5q55 0 99 43t44 110q0 45 -26 71.5t-68 26.5q-54 0 -99 -44.5t-45 -111.5z" />
<glyph unicode="p" horiz-adv-x="671" d="M2 -200l109 568q3 22 -17 22h-48l24 125h159q58 0 58 -38q0 -9 -3 -17l-3 -9h2q60 76 156 76q92 0 145.5 -60.5t53.5 -163.5q0 -135 -86 -225t-196 -90q-84 0 -135 54h-2l-2 -12q-3 -23 -5 -32l-37 -198h-173zM254 222q0 -41 20 -66t60 -25q49 0 89 44t40 115 q0 42 -21 66.5t-59 24.5q-45 0 -87 -44.5t-42 -114.5z" />
<glyph unicode="q" horiz-adv-x="646" d="M17 209q0 139 85.5 228.5t203.5 89.5q97 0 139 -60h2v7q0 8 3 22l4 19h162l-115 -593h70l-24 -122h-243l39 202q1 4 3 15.5t4 16.5q0 2 1 4.5t2 4.5t1 3h-2q-58 -58 -135 -58q-94 0 -147 59.5t-53 161.5zM192 222q0 -42 21.5 -66.5t59.5 -24.5q45 0 86.5 45.5t41.5 113.5 q0 40 -20 65.5t-60 25.5q-48 0 -88.5 -44t-40.5 -115z" />
<glyph unicode="r" horiz-adv-x="464" d="M41 0l71 368q6 22 -18 22h-48l25 125h163q62 0 62 -47q0 -26 -14 -72h2q26 54 75.5 91t102.5 37q18 0 21 -1t9 -1l-33 -170l-9 2q-7 1 -25 1q-22 0 -46.5 -8t-51.5 -26t-48.5 -53.5t-29.5 -83.5l-35 -184h-173z" />
<glyph unicode="s" horiz-adv-x="517" d="M-5 130l10 52h145l-4 -18q-5 -25 20.5 -35t58.5 -10q66 0 66 34q0 17 -24 29.5t-58.5 23t-68.5 25.5t-58 46.5t-24 77.5q0 58 37.5 98.5t92 57t119.5 16.5q79 0 136.5 -31t46.5 -93l-11 -58h-145l3 20q2 13 -7 20.5t-19 9t-24 1.5q-61 0 -61 -31q0 -19 24 -31.5t59 -21.5 t69.5 -22.5t58.5 -43.5t24 -75q0 -84 -72 -133.5t-186 -49.5q-36 0 -73 7.5t-71.5 22.5t-52.5 44.5t-11 67.5z" />
<glyph unicode="t" horiz-adv-x="409" d="M65 160q0 15 5 40l38 190h-70l24 125h76l27 139h166l-27 -139h109l-24 -125h-109l-34 -179q-3 -9 -3 -27q0 -51 76 -51q16 0 19 1t8 1l-27 -137l-15 -2q-9 -1 -31 -1q-92 0 -150 40.5t-58 124.5z" />
<glyph unicode="u" horiz-adv-x="702" d="M65 131q0 27 6 57l39 202h-70l25 125h243l-59 -302q-4 -15 -4 -29q0 -44 45 -44q50 0 87.5 45t49.5 102l20 103h-70l25 125h243l-63 -322q-4 -15 -4 -33q0 -36 39 -36q2 0 6.5 0.5t6.5 0.5h6l-24 -125l-17 -2q-11 -1 -50 -1q-21 0 -35 1t-34 6t-32.5 14.5t-23.5 28.5 t-14 45h-2q-75 -104 -186 -104q-67 0 -110 36t-43 107z" />
<glyph unicode="v" horiz-adv-x="624" d="M152 0l-67 390h-58l25 125h269l-25 -125h-46l23 -186q2 -10 2 -46q0 -15 -1 -22h4q5 17 7 22q12 30 20 46l95 186h-46l25 125h279l-25 -125h-58l-219 -390h-204z" />
<glyph unicode="w" horiz-adv-x="876" d="M111 0l-22 390h-59l25 125h269l-25 -125h-51l3 -179q1 -10 -2 -45l-3 -23h4q2 13 6 23q12 38 15 45l131 304h148l11 -304q2 -28 -2 -45l-3 -23h4q2 13 6 23l15 45l73 179h-51l25 125h279l-25 -125h-59l-174 -390h-200l-11 238q-1 18 1 46l3 22h-4q-2 -12 -6 -22 q-10 -32 -16 -46l-105 -238h-200z" />
<glyph unicode="x" horiz-adv-x="575" d="M-24 0l24 125h57l131 139l-60 109q-9 17 -34 17h-43l25 125h112q29 0 42 -7.5t24 -31.5l29 -66q8 -18 11 -27l4 -13h2l9 13q9 15 20 27l88 105h164l-25 -125h-51l-132 -139l52 -89q9 -13 11 -16t8.5 -10.5t13.5 -9t17 -1.5h33l-24 -125q-17 -3 -54 -3q-15 0 -28.5 1.5 t-24 3.5t-20 7.5t-16 8t-13.5 10.5t-10.5 11.5t-9.5 13.5t-7.5 13l-7.5 15l-7 14l-6 12q-8 18 -11 27l-4 13h-2l-8 -13q-3 -4 -10 -13t-11 -14l-89 -107h-169z" />
<glyph unicode="y" horiz-adv-x="628" d="M-80 -168l74 119q10 -7 20 -11q20 -11 61 -11q67 0 93 42l3 5l-89 414h-58l24 125h278l-24 -125h-50l26 -191q3 -16 1 -45l-2 -22h4l8 22q7 20 21 45l98 191h-47l24 125h272l-24 -125h-53l-251 -435q-53 -91 -116.5 -128t-140.5 -37q-60 0 -112 21q-26 12 -40 21z" />
<glyph unicode="z" horiz-adv-x="555" d="M-15 0l20 106l270 255q23 19 26 21q1 1 5 3.5t6 4.5v2q-10 0 -15 -1q-9 -1 -31 -1h-61l-12 -62h-145l37 187h460l-21 -107l-266 -254q-9 -8 -26 -21q-1 -1 -5 -3.5t-6 -4.5v-2q11 0 16 1q9 1 30 1h72l12 62h145l-37 -187h-474z" />
<glyph unicode="{" horiz-adv-x="386" d="M64 38q0 22 4 39l16 83q3 15 3 26q0 43 -34 61q-15 7 -35 9l29 150q24 2 45 12q47 24 59 87l20 103q18 90 94.5 123t175.5 22l-24 -124q-33 7 -68 -6t-40 -46l-26 -132q-11 -57 -61 -91q-24 -16 -48 -23v-2q18 -6 32 -20q31 -31 31 -87q0 -14 -3 -32l-21 -107 q-2 -14 -2 -17q0 -29 28 -37t61 -3l-24 -124q-8 0 -13 -1q-8 -1 -31 -1t-47.5 5t-54 18.5t-48 43t-18.5 71.5z" />
<glyph unicode="|" horiz-adv-x="366" d="M114 -165v967h144v-967h-144z" />
<glyph unicode="}" horiz-adv-x="386" d="M-44 -98l24 124q32 -8 67 6t41 46l28 139q11 57 61 91q24 16 48 23v2q-17 6 -31 20q-32 32 -32 87q0 14 3 32l20 105q1 3 1 12q0 29 -28 37t-61 3l24 124q46 7 93 -3.5t83 -45t36 -87.5q0 -22 -4 -39l-14 -76q-3 -15 -3 -26q0 -42 35 -61q15 -8 34 -9l-29 -150 q-24 -2 -45 -12q-45 -23 -59 -87l-22 -110q-18 -90 -94.5 -123t-175.5 -22z" />
<glyph unicode="~" horiz-adv-x="616" d="M174 191h-134q0 203 174 203q31 0 58.5 -12.5t43 -27.5t34.5 -27.5t36 -12.5q25 0 40 19.5t15 56.5h133q0 -203 -173 -203q-32 0 -59 12.5t-42.5 27.5t-34.5 27.5t-37 12.5q-24 0 -39 -19.5t-15 -56.5z" />
<glyph unicode="&#xa1;" horiz-adv-x="295" d="M81 365l29 150h158l-29 -150h-158zM-38 -200l112 494h148l-80 -494h-180z" />
<glyph unicode="&#xa2;" horiz-adv-x="600" d="M192 -12l18 92q-74 24 -119 86t-45 150q0 133 84 221.5t189 104.5l16 84h110l-17 -91q80 -22 127 -98q20 -33 27 -70l-155 -56q-1 20 -12 37q-21 36 -68 36q-45 0 -86 -47.5t-41 -115.5q0 -43 21.5 -66t56.5 -23q48 0 84 36q19 19 29 35l146 -62q-24 -47 -56 -80 q-78 -82 -183 -92l-16 -81h-110z" />
<glyph unicode="&#xa3;" horiz-adv-x="635" d="M-15 0l25 135h79l33 164h-74l22 112h73l22 110q18 92 91 149t173 57q79 0 144 -45q30 -20 50 -45l-106 -106q-12 12 -27 21q-31 20 -66 20q-30 0 -53.5 -18t-29.5 -48l-19 -95h155l-22 -112h-154l-33 -164h152l22 110h150l-47 -245h-560z" />
<glyph unicode="&#xa5;" horiz-adv-x="662" d="M180 0l33 167h-163l18 96h163l6 28l-15 49h-139l19 96h92l-83 279h191l28 -143q6 -28 16 -91q4 -23 6 -42h2q3 7 19 42q30 62 47 91l79 143h208l-192 -279h93l-19 -96h-140l-33 -49l-6 -28h164l-18 -96h-164l-33 -167h-179z" />
<glyph unicode="&#xa7;" horiz-adv-x="520" d="M120 179l-22 263q-10 120 54 202.5t189 82.5q88 0 158 -41q33 -19 55 -41l-86 -98q-14 11 -33 21q-44 21 -94 21q-66 0 -94.5 -40t-22.5 -110l22 -260h-126zM-20 20l86 98q17 -12 34 -21q44 -21 93 -21q66 0 94.5 40t22.5 110l-22 260h126l22 -263q10 -120 -54 -202.5 t-189 -82.5q-87 0 -157 41q-31 18 -56 41z" />
<glyph unicode="&#xa8;" horiz-adv-x="485" d="M232 771l28 140h131l-28 -140h-131zM-13 771l28 140h131l-28 -140h-131z" />
<glyph unicode="&#xa9;" horiz-adv-x="803" d="M52 358q0 153 105.5 260.5t253.5 107.5q151 0 257 -107.5t106 -260.5t-106 -261.5t-257 -108.5q-148 0 -253.5 108.5t-105.5 261.5zM165 358q0 -111 71 -189t175 -78q106 0 178.5 77.5t72.5 189.5q0 111 -72.5 188t-178.5 77q-104 0 -175 -77t-71 -188zM241 355 q0 78 51 132.5t121 54.5q83 0 130 -57q21 -26 32 -58l-100 -39q-5 15 -12 25q-18 24 -46 24q-24 0 -41.5 -23t-17.5 -59q0 -40 16 -61t43 -21t46 25q7 10 12 24l100 -39q-10 -30 -32 -57q-48 -58 -130 -58q-70 0 -121 54.5t-51 132.5z" />
<glyph unicode="&#xaa;" horiz-adv-x="419" d="M179 383q-38 0 -65 23.5t-27 63.5q0 119 199 119h10l2 9q1 5 1 13q0 27 -41 27q-28 0 -57 -12q-12 -4 -29 -13l-25 78q17 9 40 17q51 17 108 17q60 0 90.5 -28t30.5 -79q0 -15 -3 -33l-38 -195h-108l8 44h-2q-10 -15 -23 -25q-32 -26 -71 -26zM227 467q45 0 55 59h-10 q-26 0 -47 -10t-21 -29q0 -20 23 -20zM51 268l16 85h305l-17 -85h-304z" />
<glyph unicode="&#xab;" horiz-adv-x="663" d="M416 77l-130 205l213 206h167l-227 -213l130 -198h-153zM156 77l-130 205l191 206h164l-202 -213l130 -198h-153z" />
<glyph unicode="&#xac;" horiz-adv-x="642" d="M63 337v130h506v-335h-135v205h-371z" />
<glyph unicode="&#xad;" horiz-adv-x="454" d="M53 212l29 150h314l-29 -150h-314z" />
<glyph unicode="&#xae;" horiz-adv-x="803" d="M52 358q0 153 105.5 260.5t253.5 107.5q151 0 257 -107.5t106 -260.5t-106 -261.5t-257 -108.5q-148 0 -253.5 108.5t-105.5 261.5zM165 358q0 -111 71 -189t175 -78q106 0 178.5 77.5t72.5 189.5q0 111 -72.5 188t-178.5 77q-104 0 -175 -77t-71 -188zM281 187v347h163 q57 0 89.5 -31t32.5 -84q0 -37 -19.5 -59.5t-38.5 -29.5v-2l3 -4q5 -5 10 -16l63 -121h-118l-49 118h-28v-118h-108zM389 377h27q40 0 40 42q0 41 -38 41h-29v-83z" />
<glyph unicode="&#xaf;" horiz-adv-x="485" d="M42 782l22 112h275l-22 -112h-275z" />
<glyph unicode="&#xb0;" horiz-adv-x="422" d="M245 385q-74 0 -121 44t-47 111q0 74 60 132t135 58q74 0 121.5 -44.5t47.5 -111.5q0 -75 -61 -132t-135 -57zM253 505q23 0 42.5 17.5t19.5 40.5q0 21 -14 34t-37 13q-24 0 -42.5 -18.5t-18.5 -41.5q0 -20 13.5 -32.5t36.5 -12.5z" />
<glyph unicode="&#xb1;" d="M40 222v130h205v223h136v-223h205v-130h-205v-222h-136v222h-205zM50 -70h526v-130h-526v130z" />
<glyph unicode="&#xb2;" horiz-adv-x="413" d="M404 423h-340q0 55 18.5 98t47 68t61 45.5t61 33t47 28.5t18.5 33q0 30 -37 30q-27 0 -57 -22q-15 -11 -25 -23l-75 78q21 23 47 41q61 41 122 41q62 0 109 -33.5t47 -97.5q0 -40 -22.5 -73t-56 -53t-67 -36t-59.5 -31t-30 -29h113l8 43h97z" />
<glyph unicode="&#xb3;" horiz-adv-x="396" d="M226 413q-70 0 -124 34q-24 16 -38 34l75 84q11 -11 22 -18q32 -19 64 -19q27 0 44.5 14t17.5 34q0 30 -55 30h-30l-14 52l88 89q8 8 18 16q3 3 9 7v4l-11 -2q-14 -2 -23 -2h-44l-9 -47h-97l27 141h311l-15 -79l-105 -101q36 -12 57.5 -40.5t21.5 -66.5q0 -62 -54 -113 t-136 -51z" />
<glyph unicode="&#xb4;" horiz-adv-x="484" d="M26 761l145 150h183l-180 -150h-148z" />
<glyph unicode="&#xb5;" horiz-adv-x="633" d="M132 -96l-20 -104h-147l139 715h173l-58 -296q-3 -18 -3 -30q0 -44 46 -44q48 0 85.5 41.5t48.5 100.5l44 228h173l-100 -515h-167l5 26l8 35q5 13 5 16h-2q-23 -36 -69 -62.5t-97 -26.5q-26 0 -53 5h-2q0 -20 -1 -30q-1 -24 -8 -59z" />
<glyph unicode="&#xb6;" horiz-adv-x="666" d="M192 -50l57 291q-77 0 -134.5 60t-57.5 150q0 106 83 185t186 79h372l-29 -150h-237l-120 -615h-120zM374 -50l110 565h120l-110 -565h-120z" />
<glyph unicode="&#xb7;" horiz-adv-x="298" d="M53 213l31 164h158l-31 -164h-158z" />
<glyph unicode="&#xb8;" horiz-adv-x="484" d="M93 -104l70 133l69 -17l-2 -7l-29 -55q35 -2 57.5 -22.5t22.5 -51.5q0 -56 -49 -83t-111 -27q-31 0 -47 4q-9 1 -20 5l14 75l14 -4q12 -4 34 -4q53 0 53 30q0 24 -51 24h-25z" />
<glyph unicode="&#xb9;" horiz-adv-x="379" d="M63 423l19 98h99l29 152q1 4 3 11.5t4 11.5l4 11h-2l-7 -8q-5 -6 -16 -14l-33 -24l-58 79l160 124h108l-66 -343h100l-19 -98h-325z" />
<glyph unicode="&#xba;" horiz-adv-x="462" d="M257 385q-71 0 -116.5 40.5t-45.5 105.5q0 83 63 138.5t144 55.5q71 0 116.5 -40.5t45.5 -105.5q0 -83 -63 -138.5t-144 -55.5zM267 488q29 0 53 22.5t24 59.5q0 24 -14.5 38.5t-36.5 14.5q-30 0 -54 -24t-24 -60q0 -24 14 -37.5t38 -13.5zM55 268l17 85h338l-17 -85 h-338z" />
<glyph unicode="&#xbb;" horiz-adv-x="662" d="M276 77l202 213l-130 198h153l130 -205l-191 -206h-164zM-9 77l227 213l-130 198h153l130 -205l-213 -206h-167z" />
<glyph unicode="&#xbc;" horiz-adv-x="1033" d="M766 0l18 92h-196l14 79l220 270h153l-50 -257h53l-17 -92h-53l-18 -92h-124zM717 184h84l21 105l9 33l6 17h-4l-9 -16q-6 -11 -20 -30l-87 -107v-2zM353 0h-126l474 715h126zM50 274l19 98h99l29 152q1 4 3 11.5t4 11.5l4 11h-2l-7 -8q-5 -6 -16 -14l-33 -24l-58 79 l160 124h108l-66 -343h100l-19 -98h-325z" />
<glyph unicode="&#xbd;" horiz-adv-x="1027" d="M354 0h-126l474 715h126zM47 274l19 98h99l29 152q1 4 3 11.5t4 11.5l4 11h-2l-7 -8q-5 -6 -16 -14l-33 -24l-58 79l160 124h108l-66 -343h100l-19 -98h-325zM935 0h-340q0 55 18.5 98t47 68t61 45.5t61 33t47 28.5t18.5 33q0 30 -37 30q-27 0 -57 -22q-15 -11 -25 -23 l-75 78q21 23 47 41q61 41 122 41q62 0 109 -33.5t47 -97.5q0 -40 -22.5 -73t-56 -53t-67 -36t-59.5 -31t-30 -29h113l8 43h97z" />
<glyph unicode="&#xbe;" horiz-adv-x="1029" d="M206 264q-70 0 -124 34q-24 16 -38 34l75 84q11 -11 22 -18q32 -19 64 -19q27 0 44.5 14t17.5 34q0 30 -55 30h-30l-14 52l88 89q8 8 18 16q3 3 9 7v4l-11 -2q-14 -2 -23 -2h-44l-9 -47h-97l27 141h311l-15 -79l-105 -101q36 -12 57.5 -40.5t21.5 -66.5q0 -62 -54 -113 t-136 -51zM350 0h-126l474 715h126zM763 0l18 92h-196l14 79l220 270h153l-50 -257h53l-17 -92h-53l-18 -92h-124zM714 184h84l21 105l9 33l6 17h-4l-9 -16q-6 -11 -20 -30l-87 -107v-2z" />
<glyph unicode="&#xbf;" horiz-adv-x="516" d="M228 365l29 150h158l-29 -150h-158zM-18 -30q0 49 21.5 90t53 67t63 48t56.5 44t29 44l6 31h166l-8 -45q-7 -40 -30.5 -73.5t-52.5 -55t-56.5 -40.5t-46.5 -40t-19 -44q0 -22 17 -35.5t43 -13.5q35 0 71 21q22 14 32 22l79 -127q-25 -20 -60 -37q-74 -36 -150 -36 q-88 0 -151 48t-63 132z" />
<glyph unicode="&#xc0;" horiz-adv-x="732" d="M-47 0l25 130h58l309 585h204l81 -585h59l-25 -130h-294l25 130h62l-8 95h-184l-46 -95h62l-26 -130h-302zM329 361h107l-11 132q-3 25 -1 54q1 7 1 21h-4q-1 -10 -6 -21q-16 -41 -22 -54zM404 761l-122 150h171l87 -150h-136z" />
<glyph unicode="&#xc1;" horiz-adv-x="734" d="M-46 0l25 130h58l309 585h204l81 -585h59l-25 -130h-294l25 130h62l-8 95h-184l-46 -95h62l-26 -130h-302zM330 361h107l-11 132q-3 25 -1 54q1 7 1 21h-4q-2 -10 -6 -21q-16 -41 -22 -54zM361 761l145 150h183l-180 -150h-148z" />
<glyph unicode="&#xc2;" horiz-adv-x="734" d="M-46 0l25 130h58l309 585h204l81 -585h59l-25 -130h-294l25 130h62l-8 95h-184l-46 -95h62l-26 -130h-302zM330 361h107l-11 132q-3 25 -1 54q1 7 1 21h-4q-2 -10 -6 -21q-16 -41 -22 -54zM266 761l129 150h168l69 -150h-130l-31 82h-2l-63 -82h-140z" />
<glyph unicode="&#xc3;" horiz-adv-x="734" d="M-46 0l25 130h58l309 585h204l81 -585h59l-25 -130h-294l25 130h62l-8 95h-184l-46 -95h62l-26 -130h-302zM330 361h107l-11 132q-3 25 -1 54q1 7 1 21h-4q-2 -10 -6 -21q-16 -41 -22 -54zM374 761h-113q14 72 52 112.5t92 40.5q24 0 42.5 -9.5t27 -20.5t20 -20.5 t23.5 -9.5q34 0 44 57h113q-13 -72 -50.5 -112.5t-91.5 -40.5q-24 0 -43 9.5t-28 20.5t-20.5 20.5t-23.5 9.5q-32 0 -44 -57z" />
<glyph unicode="&#xc4;" horiz-adv-x="734" d="M-46 0l25 130h58l309 585h204l81 -585h59l-25 -130h-294l25 130h62l-8 95h-184l-46 -95h62l-26 -130h-302zM330 361h107l-11 132q-3 25 -1 54q1 7 1 21h-4q-2 -10 -6 -21q-16 -41 -22 -54zM513 771l28 140h131l-28 -140h-131zM268 771l28 140h131l-28 -140h-131z" />
<glyph unicode="&#xc5;" horiz-adv-x="734" d="M-46 0l25 130h58l309 585h204l81 -585h59l-25 -130h-294l25 130h62l-8 95h-184l-46 -95h62l-26 -130h-302zM330 361h107l-11 132q-3 25 -1 54q1 7 1 21h-4q-2 -10 -6 -21q-16 -41 -22 -54zM456 747q-41 0 -70 19t-29 54q0 48 37.5 73t84.5 25q42 0 71 -19.5t29 -56.5 q0 -46 -38.5 -70.5t-84.5 -24.5zM461 797q18 0 30.5 12.5t12.5 30.5q0 28 -29 28q-18 0 -30 -12.5t-12 -32.5q0 -26 28 -26z" />
<glyph unicode="&#xc6;" horiz-adv-x="1008" d="M-44 0l25 130h54l275 455h-67l25 130h760l-41 -211h-140l14 71h-146l-28 -145h204l-28 -140h-204l-29 -150h158l14 71h140l-41 -211h-558l25 130h81l32 163h-167l-94 -163h67l-25 -130h-306zM390 424h116l30 151h-57z" />
<glyph unicode="&#xc7;" horiz-adv-x="738" d="M241 -104l53 101q-115 24 -183 106.5t-68 201.5q0 173 127 297.5t306 124.5q41 0 86.5 -6.5t92 -21t72.5 -44t18 -68.5l-23 -116h-158l10 52q4 21 -15 34t-40.5 16.5t-45.5 3.5q-111 0 -178 -82.5t-67 -180.5q0 -77 41 -126.5t122 -49.5q107 0 118 54l10 52h160l-20 -106 q-7 -41 -37.5 -72t-73.5 -47t-85.5 -23.5t-83.5 -7.5h-10l-20 -38q35 -2 57.5 -22.5t22.5 -51.5q0 -56 -49 -83t-111 -27q-31 0 -47 4q-9 1 -20 5l14 75l14 -4q12 -4 34 -4q53 0 53 30q0 24 -51 24h-25z" />
<glyph unicode="&#xc8;" horiz-adv-x="661" d="M-8 0l25 130h79l89 455h-80l25 130h551l-41 -211h-150l14 71h-142l-28 -145h209l-28 -140h-209l-29 -150h154l14 71h150l-41 -211h-562zM385 761l-122 150h171l87 -150h-136z" />
<glyph unicode="&#xc9;" horiz-adv-x="661" d="M-8 0l25 130h79l89 455h-80l25 130h551l-41 -211h-150l14 71h-142l-28 -145h209l-28 -140h-209l-29 -150h154l14 71h150l-41 -211h-562zM341 761l145 150h183l-180 -150h-148z" />
<glyph unicode="&#xca;" horiz-adv-x="661" d="M-8 0l25 130h79l89 455h-80l25 130h551l-41 -211h-150l14 71h-142l-28 -145h209l-28 -140h-209l-29 -150h154l14 71h150l-41 -211h-562zM246 761l129 150h168l69 -150h-130l-31 82h-2l-63 -82h-140z" />
<glyph unicode="&#xcb;" horiz-adv-x="661" d="M-8 0l25 130h79l89 455h-80l25 130h551l-41 -211h-150l14 71h-142l-28 -145h209l-28 -140h-209l-29 -150h154l14 71h150l-41 -211h-562zM493 771l28 140h131l-28 -140h-131zM248 771l28 140h131l-28 -140h-131z" />
<glyph unicode="&#xcc;" horiz-adv-x="440" d="M-7 0l25 130h79l88 455h-79l25 130h339l-25 -130h-81l-88 -455h80l-25 -130h-338zM259 761l-122 150h171l87 -150h-136z" />
<glyph unicode="&#xcd;" horiz-adv-x="440" d="M-7 0l25 130h79l88 455h-79l25 130h339l-25 -130h-81l-88 -455h80l-25 -130h-338zM215 761l145 150h183l-180 -150h-148z" />
<glyph unicode="&#xce;" horiz-adv-x="440" d="M-7 0l25 130h79l88 455h-79l25 130h339l-25 -130h-81l-88 -455h80l-25 -130h-338zM120 761l129 150h168l69 -150h-130l-31 82h-2l-63 -82h-140z" />
<glyph unicode="&#xcf;" horiz-adv-x="440" d="M-7 0l25 130h79l88 455h-79l25 130h339l-25 -130h-81l-88 -455h80l-25 -130h-338zM367 771l28 140h131l-28 -140h-131zM122 771l28 140h131l-28 -140h-131z" />
<glyph unicode="&#xd0;" horiz-adv-x="788" d="M-7 0l25 130h79l30 154h-70l27 140h70l32 161h-80l25 130h306q156 0 243.5 -74.5t87.5 -208.5q0 -182 -118 -307t-301 -125h-356zM278 140h67q108 0 175.5 80t67.5 196q0 77 -41.5 118t-117.5 41h-67l-29 -151h114l-27 -140h-114z" />
<glyph unicode="&#xd1;" horiz-adv-x="858" d="M-8 0l25 130h79l89 455h-80l25 130h256l153 -386q7 -14 13 -46q3 -12 3 -24h4q0 9 2 27q2 14 8 50l49 249h-84l25 130h343l-25 -130h-80l-114 -585h-176l-155 385q-8 23 -12 45q-2 8 -4 24h-4q0 -8 -2 -26q-2 -8 -4 -25t-3 -25l-48 -248h84l-25 -130h-342zM440 761h-113 q14 72 52 112.5t92 40.5q24 0 42.5 -9.5t27 -20.5t20 -20.5t23.5 -9.5q34 0 44 57h113q-13 -72 -50.5 -112.5t-91.5 -40.5q-24 0 -43 9.5t-28 20.5t-20.5 20.5t-23.5 9.5q-32 0 -44 -57z" />
<glyph unicode="&#xd2;" horiz-adv-x="818" d="M43 307q0 170 128.5 295t300.5 125q145 0 236 -88t91 -224q0 -113 -60 -212t-159.5 -157t-210.5 -58q-145 0 -235.5 90t-90.5 229zM223 317q0 -78 43.5 -126t113.5 -48q91 0 164.5 77t73.5 184q0 75 -44 121.5t-114 46.5q-92 0 -164.5 -74.5t-72.5 -180.5zM449 761 l-122 150h171l87 -150h-136z" />
<glyph unicode="&#xd3;" horiz-adv-x="818" d="M43 307q0 170 128.5 295t300.5 125q145 0 236 -88t91 -224q0 -113 -60 -212t-159.5 -157t-210.5 -58q-145 0 -235.5 90t-90.5 229zM223 317q0 -78 43.5 -126t113.5 -48q91 0 164.5 77t73.5 184q0 75 -44 121.5t-114 46.5q-92 0 -164.5 -74.5t-72.5 -180.5zM405 761 l145 150h183l-180 -150h-148z" />
<glyph unicode="&#xd4;" horiz-adv-x="818" d="M43 307q0 170 128.5 295t300.5 125q145 0 236 -88t91 -224q0 -113 -60 -212t-159.5 -157t-210.5 -58q-145 0 -235.5 90t-90.5 229zM223 317q0 -78 43.5 -126t113.5 -48q91 0 164.5 77t73.5 184q0 75 -44 121.5t-114 46.5q-92 0 -164.5 -74.5t-72.5 -180.5zM310 761 l129 150h168l69 -150h-130l-31 82h-2l-63 -82h-140z" />
<glyph unicode="&#xd5;" horiz-adv-x="818" d="M43 307q0 170 128.5 295t300.5 125q145 0 236 -88t91 -224q0 -113 -60 -212t-159.5 -157t-210.5 -58q-145 0 -235.5 90t-90.5 229zM223 317q0 -78 43.5 -126t113.5 -48q91 0 164.5 77t73.5 184q0 75 -44 121.5t-114 46.5q-92 0 -164.5 -74.5t-72.5 -180.5zM418 761h-113 q14 72 52 112.5t92 40.5q24 0 42.5 -9.5t27 -20.5t20 -20.5t23.5 -9.5q34 0 44 57h113q-13 -72 -50.5 -112.5t-91.5 -40.5q-24 0 -43 9.5t-28 20.5t-20.5 20.5t-23.5 9.5q-32 0 -44 -57z" />
<glyph unicode="&#xd6;" horiz-adv-x="818" d="M43 307q0 170 128.5 295t300.5 125q145 0 236 -88t91 -224q0 -113 -60 -212t-159.5 -157t-210.5 -58q-145 0 -235.5 90t-90.5 229zM223 317q0 -78 43.5 -126t113.5 -48q91 0 164.5 77t73.5 184q0 75 -44 121.5t-114 46.5q-92 0 -164.5 -74.5t-72.5 -180.5zM557 771 l28 140h131l-28 -140h-131zM312 771l28 140h131l-28 -140h-131z" />
<glyph unicode="&#xd7;" d="M41 92l182 195l-182 196l92 92l179 -192l180 192l92 -92l-183 -196l183 -195l-92 -92l-180 192l-179 -192z" />
<glyph unicode="&#xd8;" horiz-adv-x="819" d="M46 25l69 74q-71 85 -71 208q0 111 58.5 208.5t155.5 154.5t205 57q109 0 191 -48l59 64l65 -52l-59 -64q81 -86 81 -212q0 -113 -59.5 -212.5t-156.5 -157t-204 -57.5q-117 0 -203 56l-66 -72zM241 235l293 316q-33 16 -73 16q-92 0 -164.5 -73.5t-72.5 -176.5 q0 -45 17 -82zM596 494l-300 -323q38 -23 86 -23q90 0 163.5 76t73.5 180q0 52 -23 90z" />
<glyph unicode="&#xd9;" horiz-adv-x="824" d="M96 212q0 30 11 86l56 287h-80l25 130h339l-25 -130h-80l-55 -287q-10 -53 -10 -65q0 -90 105 -90q67 0 108 41q29 32 38 79l62 322h-80l25 130h339l-25 -130h-80l-63 -327q-29 -145 -133 -217q-80 -53 -194 -53q-121 0 -202 58t-81 166zM452 761l-122 150h171l87 -150 h-136z" />
<glyph unicode="&#xda;" horiz-adv-x="824" d="M96 212q0 30 11 86l56 287h-80l25 130h339l-25 -130h-80l-55 -287q-10 -53 -10 -65q0 -90 105 -90q67 0 108 41q29 32 38 79l62 322h-80l25 130h339l-25 -130h-80l-63 -327q-29 -145 -133 -217q-80 -53 -194 -53q-121 0 -202 58t-81 166zM408 761l145 150h183l-180 -150 h-148z" />
<glyph unicode="&#xdb;" horiz-adv-x="824" d="M96 212q0 30 11 86l56 287h-80l25 130h339l-25 -130h-80l-55 -287q-10 -53 -10 -65q0 -90 105 -90q67 0 108 41q29 32 38 79l62 322h-80l25 130h339l-25 -130h-80l-63 -327q-29 -145 -133 -217q-80 -53 -194 -53q-121 0 -202 58t-81 166zM313 761l129 150h168l69 -150 h-130l-31 82h-2l-63 -82h-140z" />
<glyph unicode="&#xdc;" horiz-adv-x="824" d="M96 212q0 30 11 86l56 287h-80l25 130h339l-25 -130h-80l-55 -287q-10 -53 -10 -65q0 -90 105 -90q67 0 108 41q29 32 38 79l62 322h-80l25 130h339l-25 -130h-80l-63 -327q-29 -145 -133 -217q-80 -53 -194 -53q-121 0 -202 58t-81 166zM560 771l28 140h131l-28 -140 h-131zM315 771l28 140h131l-28 -140h-131z" />
<glyph unicode="&#xdd;" horiz-adv-x="671" d="M108 0l25 130h80l32 163l-118 292h-61l25 130h289l-25 -130h-60l47 -132q6 -16 7 -25l2 -10h2q2 6 6 10q2 4 8 12t9 13l99 132h-60l25 130h302l-25 -130h-61l-232 -292l-32 -163h80l-25 -130h-339zM336 761l145 150h183l-180 -150h-148z" />
<glyph unicode="&#xde;" horiz-adv-x="675" d="M-8 0l25 130h79l89 455h-80l25 130h339l-25 -130h-84l-9 -46h135q92 0 141 -41.5t49 -112.5q0 -95 -70.5 -150t-184.5 -55h-140l-10 -50h84l-25 -130h-338zM306 310h93q96 0 96 64q0 20 -17 27.5t-56 7.5h-96z" />
<glyph unicode="&#xdf;" horiz-adv-x="645" d="M14 0l104 537q17 89 94 139.5t173 50.5q94 0 156.5 -46.5t62.5 -122.5q0 -39 -16.5 -71t-36 -48.5t-36 -35t-16.5 -34.5q0 -18 15 -39t33.5 -38t33.5 -46t15 -61q0 -80 -65 -136t-150 -56q-50 0 -101 11q-24 6 -34 10l28 139q4 -2 13 -4.5t12 -3.5q32 -8 66 -8 q22 0 40 11t18 36q0 18 -15.5 38.5t-34.5 37t-34.5 42.5t-15.5 54q0 35 16.5 65t37 47t37 37t16.5 36q0 42 -53 42q-76 0 -90 -68l-100 -515h-173z" />
<glyph unicode="&#xe0;" horiz-adv-x="583" d="M-9 124q0 53 33 93.5t86 61.5t107.5 31t108.5 10h7l2 11q2 14 2 19q0 42 -64 42q-42 0 -101 -23q-26 -11 -51 -24l-35 125q33 17 68 29q77 28 153 28q35 0 67.5 -7.5t64 -24.5t50.5 -49.5t19 -77.5q0 -31 -17.5 -109t-17.5 -99q0 -36 39 -36q2 0 6.5 0.5t6.5 0.5h6 l-24 -125q-1 0 -3 -0.5t-5 -1t-5 -0.5q-11 -1 -52 -1q-27 0 -43.5 1.5t-39 8.5t-37 23.5t-20.5 42.5h-2q-19 -25 -43 -42q-57 -43 -121 -43q-61 0 -103 35t-42 101zM161 153q0 -41 39 -41q34 0 67.5 32.5t42.5 66.5l3 12h-16q-18 0 -37.5 -3t-43.5 -9.5t-39.5 -21.5 t-15.5 -36zM278 565l-122 150h171l87 -150h-136z" />
<glyph unicode="&#xe1;" horiz-adv-x="583" d="M-9 124q0 53 33 93.5t86 61.5t107.5 31t108.5 10h7l2 11q2 14 2 19q0 42 -64 42q-42 0 -101 -23q-26 -11 -51 -24l-35 125q33 17 68 29q77 28 153 28q35 0 67.5 -7.5t64 -24.5t50.5 -49.5t19 -77.5q0 -31 -17.5 -109t-17.5 -99q0 -36 39 -36q2 0 6.5 0.5t6.5 0.5h6 l-24 -125q-1 0 -3 -0.5t-5 -1t-5 -0.5q-11 -1 -52 -1q-27 0 -43.5 1.5t-39 8.5t-37 23.5t-20.5 42.5h-2q-19 -25 -43 -42q-57 -43 -121 -43q-61 0 -103 35t-42 101zM161 153q0 -41 39 -41q34 0 67.5 32.5t42.5 66.5l3 12h-16q-18 0 -37.5 -3t-43.5 -9.5t-39.5 -21.5 t-15.5 -36zM234 565l145 150h183l-180 -150h-148z" />
<glyph unicode="&#xe2;" horiz-adv-x="583" d="M-9 124q0 53 33 93.5t86 61.5t107.5 31t108.5 10h7l2 11q2 14 2 19q0 42 -64 42q-42 0 -101 -23q-26 -11 -51 -24l-35 125q33 17 68 29q77 28 153 28q35 0 67.5 -7.5t64 -24.5t50.5 -49.5t19 -77.5q0 -31 -17.5 -109t-17.5 -99q0 -36 39 -36q2 0 6.5 0.5t6.5 0.5h6 l-24 -125q-1 0 -3 -0.5t-5 -1t-5 -0.5q-11 -1 -52 -1q-27 0 -43.5 1.5t-39 8.5t-37 23.5t-20.5 42.5h-2q-19 -25 -43 -42q-57 -43 -121 -43q-61 0 -103 35t-42 101zM161 153q0 -41 39 -41q34 0 67.5 32.5t42.5 66.5l3 12h-16q-18 0 -37.5 -3t-43.5 -9.5t-39.5 -21.5 t-15.5 -36zM139 565l129 150h168l69 -150h-130l-31 82h-2l-63 -82h-140z" />
<glyph unicode="&#xe3;" horiz-adv-x="583" d="M-9 124q0 53 33 93.5t86 61.5t107.5 31t108.5 10h7l2 11q2 14 2 19q0 42 -64 42q-42 0 -101 -23q-26 -11 -51 -24l-35 125q33 17 68 29q77 28 153 28q35 0 67.5 -7.5t64 -24.5t50.5 -49.5t19 -77.5q0 -31 -17.5 -109t-17.5 -99q0 -36 39 -36q2 0 6.5 0.5t6.5 0.5h6 l-24 -125q-1 0 -3 -0.5t-5 -1t-5 -0.5q-11 -1 -52 -1q-27 0 -43.5 1.5t-39 8.5t-37 23.5t-20.5 42.5h-2q-19 -25 -43 -42q-57 -43 -121 -43q-61 0 -103 35t-42 101zM161 153q0 -41 39 -41q34 0 67.5 32.5t42.5 66.5l3 12h-16q-18 0 -37.5 -3t-43.5 -9.5t-39.5 -21.5 t-15.5 -36zM247 565h-113q14 72 52 112.5t92 40.5q24 0 42.5 -9.5t27 -20.5t20 -20.5t23.5 -9.5q33 0 44 57h113q-13 -72 -50.5 -112.5t-91.5 -40.5q-24 0 -43 9.5t-28 20.5t-20.5 20.5t-23.5 9.5q-32 0 -44 -57z" />
<glyph unicode="&#xe4;" horiz-adv-x="583" d="M-9 124q0 53 33 93.5t86 61.5t107.5 31t108.5 10h7l2 11q2 14 2 19q0 42 -64 42q-42 0 -101 -23q-26 -11 -51 -24l-35 125q33 17 68 29q77 28 153 28q35 0 67.5 -7.5t64 -24.5t50.5 -49.5t19 -77.5q0 -31 -17.5 -109t-17.5 -99q0 -36 39 -36q2 0 6.5 0.5t6.5 0.5h6 l-24 -125q-1 0 -3 -0.5t-5 -1t-5 -0.5q-11 -1 -52 -1q-27 0 -43.5 1.5t-39 8.5t-37 23.5t-20.5 42.5h-2q-19 -25 -43 -42q-57 -43 -121 -43q-61 0 -103 35t-42 101zM161 153q0 -41 39 -41q34 0 67.5 32.5t42.5 66.5l3 12h-16q-18 0 -37.5 -3t-43.5 -9.5t-39.5 -21.5 t-15.5 -36zM386 575l28 140h131l-28 -140h-131zM141 575l28 140h131l-28 -140h-131z" />
<glyph unicode="&#xe5;" horiz-adv-x="583" d="M-9 124q0 53 33 93.5t86 61.5t107.5 31t108.5 10h7l2 11q2 14 2 19q0 42 -64 42q-42 0 -101 -23q-26 -11 -51 -24l-35 125q33 17 68 29q77 28 153 28q35 0 67.5 -7.5t64 -24.5t50.5 -49.5t19 -77.5q0 -31 -17.5 -109t-17.5 -99q0 -36 39 -36q2 0 6.5 0.5t6.5 0.5h6 l-24 -125q-1 0 -3 -0.5t-5 -1t-5 -0.5q-11 -1 -52 -1q-27 0 -43.5 1.5t-39 8.5t-37 23.5t-20.5 42.5h-2q-19 -25 -43 -42q-57 -43 -121 -43q-61 0 -103 35t-42 101zM161 153q0 -41 39 -41q34 0 67.5 32.5t42.5 66.5l3 12h-16q-18 0 -37.5 -3t-43.5 -9.5t-39.5 -21.5 t-15.5 -36zM329 551q-41 0 -70 19t-29 54q0 48 37.5 73t84.5 25q42 0 71 -19.5t29 -56.5q0 -46 -38.5 -70.5t-84.5 -24.5zM334 601q18 0 30.5 12.5t12.5 30.5q0 28 -29 28q-18 0 -30 -12.5t-12 -32.5q0 -26 28 -26z" />
<glyph unicode="&#xe6;" horiz-adv-x="852" d="M-7 131q0 55 32.5 94.5t85 59t101.5 27.5t99 8h20q2 7 2 21q0 51 -65 51q-54 0 -106 -23q-23 -10 -43 -24l-37 125q35 18 67 29q77 28 153 28q87 0 146 -53h2q72 53 153 53q107 0 163.5 -55t56.5 -147q0 -34 -9 -68q-6 -22 -10 -33h-323v-3q0 -1 -0.5 -3t-0.5 -4 q0 -39 29 -63t75 -24q47 0 103 26q23 9 46 26l44 -124q-27 -18 -60 -33q-74 -34 -148 -34q-144 0 -214 91h-2q-6 -11 -17.5 -23t-33.5 -29t-58.5 -28t-79.5 -11q-69 0 -120 40t-51 103zM502 320h152q1 2 1 7v14q0 25 -14.5 40.5t-40.5 15.5q-70 0 -98 -77zM167 153 q0 -33 42 -33q33 0 64.5 29t37.5 62l2 12h-16q-17 0 -36.5 -2.5t-42 -9.5t-37 -22t-14.5 -36z" />
<glyph unicode="&#xe7;" horiz-adv-x="576" d="M142 -104l53 102q-87 21 -133.5 81t-46.5 140q0 118 93 213t241 95q37 0 73.5 -7t71.5 -22t53 -44t10 -68l-14 -72h-147l6 28q4 18 -14.5 29.5t-50.5 11.5q-65 0 -106 -47.5t-41 -103.5q0 -43 27.5 -72t85.5 -29q54 0 116 30q30 16 48 29l44 -127q-30 -23 -58 -37 q-78 -38 -168 -38h-15l-20 -38q35 -2 57.5 -22.5t22.5 -51.5q0 -56 -49 -83t-111 -27q-31 0 -47 4q-9 1 -20 5l14 75l14 -4q12 -4 34 -4q53 0 53 30q0 24 -51 24h-25z" />
<glyph unicode="&#xe8;" horiz-adv-x="563" d="M17 213q0 134 85 224t212 90q107 0 163.5 -55t56.5 -147q0 -33 -9 -67q-6 -22 -10 -32h-324v-3q0 -1 -0.5 -3t-0.5 -4q0 -39 27.5 -62t73.5 -23q47 0 105 26q24 10 48 26l44 -128q-27 -18 -60 -33q-74 -34 -148 -34q-126 0 -194.5 64.5t-68.5 160.5zM212 321h152q0 5 1 8 q1 4 1 12q0 25 -14.5 40.5t-40.5 15.5q-69 0 -99 -76zM293 565l-122 150h171l87 -150h-136z" />
<glyph unicode="&#xe9;" horiz-adv-x="563" d="M17 213q0 134 85 224t212 90q107 0 163.5 -55t56.5 -147q0 -33 -9 -67q-6 -22 -10 -32h-324v-3q0 -1 -0.5 -3t-0.5 -4q0 -39 27.5 -62t73.5 -23q47 0 105 26q24 10 48 26l44 -128q-27 -18 -60 -33q-74 -34 -148 -34q-126 0 -194.5 64.5t-68.5 160.5zM212 321h152q0 5 1 8 q1 4 1 12q0 25 -14.5 40.5t-40.5 15.5q-69 0 -99 -76zM249 565l145 150h183l-180 -150h-148z" />
<glyph unicode="&#xea;" horiz-adv-x="563" d="M17 213q0 134 85 224t212 90q107 0 163.5 -55t56.5 -147q0 -33 -9 -67q-6 -22 -10 -32h-324v-3q0 -1 -0.5 -3t-0.5 -4q0 -39 27.5 -62t73.5 -23q47 0 105 26q24 10 48 26l44 -128q-27 -18 -60 -33q-74 -34 -148 -34q-126 0 -194.5 64.5t-68.5 160.5zM212 321h152q0 5 1 8 q1 4 1 12q0 25 -14.5 40.5t-40.5 15.5q-69 0 -99 -76zM154 565l129 150h168l69 -150h-130l-31 82h-2l-63 -82h-140z" />
<glyph unicode="&#xeb;" horiz-adv-x="563" d="M17 213q0 134 85 224t212 90q107 0 163.5 -55t56.5 -147q0 -33 -9 -67q-6 -22 -10 -32h-324v-3q0 -1 -0.5 -3t-0.5 -4q0 -39 27.5 -62t73.5 -23q47 0 105 26q24 10 48 26l44 -128q-27 -18 -60 -33q-74 -34 -148 -34q-126 0 -194.5 64.5t-68.5 160.5zM212 321h152q0 5 1 8 q1 4 1 12q0 25 -14.5 40.5t-40.5 15.5q-69 0 -99 -76zM401 575l28 140h131l-28 -140h-131zM156 575l28 140h131l-28 -140h-131z" />
<glyph unicode="&#xec;" horiz-adv-x="367" d="M65 116q0 32 7 64l41 210h-70l24 125h243l-63 -322q-4 -15 -4 -33q0 -36 39 -36q2 0 6.5 0.5t6.5 0.5h6l-24 -125l-15 -2q-11 -1 -37 -1q-36 0 -59.5 3t-49 14t-38.5 36.5t-13 65.5zM183 565l-122 150h171l87 -150h-136z" />
<glyph unicode="&#xed;" horiz-adv-x="367" d="M65 116q0 32 7 64l41 210h-70l24 125h243l-63 -322q-4 -15 -4 -33q0 -36 39 -36q2 0 6.5 0.5t6.5 0.5h6l-24 -125l-15 -2q-11 -1 -37 -1q-36 0 -59.5 3t-49 14t-38.5 36.5t-13 65.5zM139 565l145 150h183l-180 -150h-148z" />
<glyph unicode="&#xee;" horiz-adv-x="367" d="M65 116q0 32 7 64l41 210h-70l24 125h243l-63 -322q-4 -15 -4 -33q0 -36 39 -36q2 0 6.5 0.5t6.5 0.5h6l-24 -125l-15 -2q-11 -1 -37 -1q-36 0 -59.5 3t-49 14t-38.5 36.5t-13 65.5zM44 565l129 150h168l69 -150h-130l-31 82h-2l-63 -82h-140z" />
<glyph unicode="&#xef;" horiz-adv-x="367" d="M65 116q0 32 7 64l41 210h-70l24 125h243l-63 -322q-4 -15 -4 -33q0 -36 39 -36q2 0 6.5 0.5t6.5 0.5h6l-24 -125l-15 -2q-11 -1 -37 -1q-36 0 -59.5 3t-49 14t-38.5 36.5t-13 65.5zM276 575l28 140h131l-28 -140h-131zM62 575l28 140h131l-28 -140h-131z" />
<glyph unicode="&#xf0;" horiz-adv-x="596" d="M12 202q0 103 79 182.5t200 79.5q23 0 53 -8q3 -1 11 -3.5t12 -4.5h2q-18 41 -69 83l-204 -77l16 78l116 43q-62 32 -100 39l70 124q122 -31 211 -95l176 66l-15 -78l-107 -40q92 -106 92 -244q0 -44 -10 -90.5t-33.5 -95t-57.5 -87t-86.5 -62.5t-115.5 -24 q-115 0 -177.5 60.5t-62.5 153.5zM187 204q0 -72 66 -72q51 0 84.5 43.5t33.5 93.5q0 63 -70 63q-54 0 -84 -38t-30 -90z" />
<glyph unicode="&#xf1;" horiz-adv-x="700" d="M39 0l72 368q4 22 -18 22h-48l24 125h164q61 0 61 -47q0 -18 -8 -40h2q17 25 47 50q61 49 139 49q66 0 107.5 -37t41.5 -108q0 -35 -18 -119.5t-18 -102.5q0 -36 39 -36q2 0 6.5 0.5t6.5 0.5h6l-24 -125q-1 0 -2.5 -0.5t-3 -0.5t-4 -0.5t-4.5 -0.5q-11 -1 -47 -1 q-25 0 -42.5 1.5t-39.5 8.5t-36 19t-23.5 35t-9.5 55t17 114t17 97q0 43 -49 43q-51 0 -88.5 -44t-50.5 -108l-43 -218h-173zM330 565h-113q14 72 52 112.5t92 40.5q24 0 42.5 -9.5t27 -20.5t20 -20.5t23.5 -9.5q34 0 44 57h113q-13 -72 -50.5 -112.5t-91.5 -40.5 q-24 0 -43 9.5t-28 20.5t-20.5 20.5t-23.5 9.5q-32 0 -44 -57z" />
<glyph unicode="&#xf2;" horiz-adv-x="635" d="M16 219q0 132 99 220t232 88q112 0 184.5 -63.5t72.5 -167.5q0 -132 -99.5 -220t-231.5 -88q-112 0 -184.5 63.5t-72.5 167.5zM191 227q0 -44 26 -69.5t69 -25.5q55 0 99 43t44 110q0 45 -26 71.5t-68 26.5q-54 0 -99 -44.5t-45 -111.5zM321 565l-122 150h171l87 -150 h-136z" />
<glyph unicode="&#xf3;" horiz-adv-x="635" d="M16 219q0 132 99 220t232 88q112 0 184.5 -63.5t72.5 -167.5q0 -132 -99.5 -220t-231.5 -88q-112 0 -184.5 63.5t-72.5 167.5zM191 227q0 -44 26 -69.5t69 -25.5q55 0 99 43t44 110q0 45 -26 71.5t-68 26.5q-54 0 -99 -44.5t-45 -111.5zM277 565l145 150h183l-180 -150 h-148z" />
<glyph unicode="&#xf4;" horiz-adv-x="635" d="M16 219q0 132 99 220t232 88q112 0 184.5 -63.5t72.5 -167.5q0 -132 -99.5 -220t-231.5 -88q-112 0 -184.5 63.5t-72.5 167.5zM191 227q0 -44 26 -69.5t69 -25.5q55 0 99 43t44 110q0 45 -26 71.5t-68 26.5q-54 0 -99 -44.5t-45 -111.5zM182 565l129 150h168l69 -150 h-130l-31 82h-2l-63 -82h-140z" />
<glyph unicode="&#xf5;" horiz-adv-x="635" d="M16 219q0 132 99 220t232 88q112 0 184.5 -63.5t72.5 -167.5q0 -132 -99.5 -220t-231.5 -88q-112 0 -184.5 63.5t-72.5 167.5zM191 227q0 -44 26 -69.5t69 -25.5q55 0 99 43t44 110q0 45 -26 71.5t-68 26.5q-54 0 -99 -44.5t-45 -111.5zM290 565h-113q14 72 52 112.5 t92 40.5q24 0 42.5 -9.5t27 -20.5t20 -20.5t23.5 -9.5q34 0 44 57h113q-13 -72 -50.5 -112.5t-91.5 -40.5q-24 0 -43 9.5t-28 20.5t-20.5 20.5t-23.5 9.5q-32 0 -44 -57z" />
<glyph unicode="&#xf6;" horiz-adv-x="635" d="M16 219q0 132 99 220t232 88q112 0 184.5 -63.5t72.5 -167.5q0 -132 -99.5 -220t-231.5 -88q-112 0 -184.5 63.5t-72.5 167.5zM191 227q0 -44 26 -69.5t69 -25.5q55 0 99 43t44 110q0 45 -26 71.5t-68 26.5q-54 0 -99 -44.5t-45 -111.5zM429 575l28 140h131l-28 -140 h-131zM184 575l28 140h131l-28 -140h-131z" />
<glyph unicode="&#xf7;" d="M240 440v135h146v-135h-146zM40 222v130h546v-130h-546zM240 0v135h146v-135h-146z" />
<glyph unicode="&#xf8;" horiz-adv-x="635" d="M24 -1l57 61q-65 67 -65 159q0 131 97.5 219.5t223.5 88.5q82 0 148 -34l60 64l56 -46l-58 -62q61 -66 61 -153q0 -132 -98 -220t-223 -88q-79 0 -141 30l-62 -66zM200 187l175 187q-20 9 -40 9q-54 0 -99 -44.5t-45 -111.5q0 -15 9 -40zM422 319l-169 -182q15 -5 33 -5 q55 0 99 43t44 110q0 8 -7 34z" />
<glyph unicode="&#xf9;" horiz-adv-x="702" d="M65 131q0 27 6 57l39 202h-70l25 125h243l-59 -302q-4 -15 -4 -29q0 -44 45 -44q50 0 87.5 45t49.5 102l20 103h-70l25 125h243l-63 -322q-4 -15 -4 -33q0 -36 39 -36q2 0 6.5 0.5t6.5 0.5h6l-24 -125l-17 -2q-11 -1 -50 -1q-21 0 -35 1t-34 6t-32.5 14.5t-23.5 28.5 t-14 45h-2q-75 -104 -186 -104q-67 0 -110 36t-43 107zM332 565l-122 150h171l87 -150h-136z" />
<glyph unicode="&#xfa;" horiz-adv-x="702" d="M65 131q0 27 6 57l39 202h-70l25 125h243l-59 -302q-4 -15 -4 -29q0 -44 45 -44q50 0 87.5 45t49.5 102l20 103h-70l25 125h243l-63 -322q-4 -15 -4 -33q0 -36 39 -36q2 0 6.5 0.5t6.5 0.5h6l-24 -125l-17 -2q-11 -1 -50 -1q-21 0 -35 1t-34 6t-32.5 14.5t-23.5 28.5 t-14 45h-2q-75 -104 -186 -104q-67 0 -110 36t-43 107zM288 565l145 150h183l-180 -150h-148z" />
<glyph unicode="&#xfb;" horiz-adv-x="702" d="M65 131q0 27 6 57l39 202h-70l25 125h243l-59 -302q-4 -15 -4 -29q0 -44 45 -44q50 0 87.5 45t49.5 102l20 103h-70l25 125h243l-63 -322q-4 -15 -4 -33q0 -36 39 -36q2 0 6.5 0.5t6.5 0.5h6l-24 -125l-17 -2q-11 -1 -50 -1q-21 0 -35 1t-34 6t-32.5 14.5t-23.5 28.5 t-14 45h-2q-75 -104 -186 -104q-67 0 -110 36t-43 107zM193 565l129 150h168l69 -150h-130l-31 82h-2l-63 -82h-140z" />
<glyph unicode="&#xfc;" horiz-adv-x="702" d="M65 131q0 27 6 57l39 202h-70l25 125h243l-59 -302q-4 -15 -4 -29q0 -44 45 -44q50 0 87.5 45t49.5 102l20 103h-70l25 125h243l-63 -322q-4 -15 -4 -33q0 -36 39 -36q2 0 6.5 0.5t6.5 0.5h6l-24 -125l-17 -2q-11 -1 -50 -1q-21 0 -35 1t-34 6t-32.5 14.5t-23.5 28.5 t-14 45h-2q-75 -104 -186 -104q-67 0 -110 36t-43 107zM440 575l28 140h131l-28 -140h-131zM195 575l28 140h131l-28 -140h-131z" />
<glyph unicode="&#xfd;" horiz-adv-x="628" d="M-80 -168l74 119q10 -7 20 -11q20 -11 61 -11q67 0 93 42l3 5l-89 414h-58l24 125h278l-24 -125h-50l26 -191q3 -16 1 -45l-2 -22h4l8 22q7 20 21 45l98 191h-47l24 125h272l-24 -125h-53l-251 -435q-53 -91 -116.5 -128t-140.5 -37q-60 0 -112 21q-26 12 -40 21z M268 565l145 150h183l-180 -150h-148z" />
<glyph unicode="&#xfe;" horiz-adv-x="645" d="M-25 -200l154 790h-72l24 125h243l-41 -208q-2 -13 -6 -23l-3 -10h2q53 53 137 53q92 0 145.5 -60.5t53.5 -163.5q0 -135 -86 -225t-196 -90q-88 0 -135 54h-2l-2 -12q-3 -23 -5 -32l-39 -198h-172zM228 222q0 -41 20 -66t60 -25q49 0 89 44t40 115q0 42 -21 66.5 t-59 24.5q-45 0 -87 -44.5t-42 -114.5z" />
<glyph unicode="&#xff;" horiz-adv-x="628" d="M-80 -168l74 119q10 -7 20 -11q20 -11 61 -11q67 0 93 42l3 5l-89 414h-58l24 125h278l-24 -125h-50l26 -191q3 -16 1 -45l-2 -22h4l8 22q7 20 21 45l98 191h-47l24 125h272l-24 -125h-53l-251 -435q-53 -91 -116.5 -128t-140.5 -37q-60 0 -112 21q-26 12 -40 21z M420 575l28 140h131l-28 -140h-131zM175 575l28 140h131l-28 -140h-131z" />
<glyph unicode="&#x152;" horiz-adv-x="1019" d="M42 306q0 111 61.5 208t159.5 153t205 56q48 0 94 -4t71 -4h406l-41 -211h-140l14 71h-147l-29 -146h204l-27 -139h-204l-29 -150h159l14 71h140l-41 -211h-403q-18 0 -57.5 -4t-76.5 -4q-146 0 -239.5 89t-93.5 225zM224 313q0 -78 45.5 -127.5t119.5 -49.5q37 0 54 4 l20 3l82 429q-1 0 -7.5 1.5t-10.5 2.5q-18 3 -52 3q-98 0 -174.5 -79t-76.5 -187z" />
<glyph unicode="&#x153;" horiz-adv-x="971" d="M16 219q0 133 95 220.5t226 87.5q119 0 193 -80h2q80 80 190 80q107 0 163.5 -55t56.5 -147q0 -34 -9 -68q-6 -22 -10 -33h-324v-3q0 -1 -0.5 -3t-0.5 -4q0 -37 27.5 -59.5t73.5 -22.5q47 0 105 26q24 10 48 26l44 -129q-27 -18 -60 -33q-74 -34 -148 -34q-129 0 -199 83 h-2q-89 -83 -204 -83q-117 0 -192 63.5t-75 167.5zM621 323h152q1 2 1 7v11q0 25 -14.5 40.5t-40.5 15.5q-69 0 -98 -74zM191 227q0 -44 26 -69.5t69 -25.5q55 0 99 43t44 110q0 45 -26 71.5t-68 26.5q-59 0 -101.5 -43.5t-42.5 -112.5z" />
<glyph unicode="&#x178;" horiz-adv-x="671" d="M108 0l25 130h80l32 163l-118 292h-61l25 130h289l-25 -130h-60l47 -132q6 -16 7 -25l2 -10h2q2 6 6 10q2 4 8 12t9 13l99 132h-60l25 130h302l-25 -130h-61l-232 -292l-32 -163h80l-25 -130h-339zM488 771l28 140h131l-28 -140h-131zM243 771l28 140h131l-28 -140h-131z " />
<glyph unicode="&#x2c6;" horiz-adv-x="486" d="M-14 761l129 150h168l69 -150h-130l-31 82h-2l-63 -82h-140z" />
<glyph unicode="&#x2dc;" horiz-adv-x="485" d="M90 761h-113q14 72 52 112.5t92 40.5q24 0 42.5 -9.5t27 -20.5t20 -20.5t23.5 -9.5q34 0 44 57h113q-13 -72 -50.5 -112.5t-91.5 -40.5q-24 0 -43 9.5t-28 20.5t-20.5 20.5t-23.5 9.5q-32 0 -44 -57z" />
<glyph unicode="&#x2000;" horiz-adv-x="459" />
<glyph unicode="&#x2001;" horiz-adv-x="918" />
<glyph unicode="&#x2002;" horiz-adv-x="459" />
<glyph unicode="&#x2003;" horiz-adv-x="918" />
<glyph unicode="&#x2004;" horiz-adv-x="306" />
<glyph unicode="&#x2005;" horiz-adv-x="229" />
<glyph unicode="&#x2006;" horiz-adv-x="153" />
<glyph unicode="&#x2007;" horiz-adv-x="153" />
<glyph unicode="&#x2008;" horiz-adv-x="114" />
<glyph unicode="&#x2009;" horiz-adv-x="183" />
<glyph unicode="&#x200a;" horiz-adv-x="51" />
<glyph unicode="&#x2010;" horiz-adv-x="454" d="M53 212l29 150h314l-29 -150h-314z" />
<glyph unicode="&#x2011;" horiz-adv-x="454" d="M53 212l29 150h314l-29 -150h-314z" />
<glyph unicode="&#x2012;" horiz-adv-x="454" d="M53 212l29 150h314l-29 -150h-314z" />
<glyph unicode="&#x2013;" horiz-adv-x="741" d="M57 222l25 130h596l-25 -130h-596z" />
<glyph unicode="&#x2014;" horiz-adv-x="941" d="M57 222l25 130h796l-25 -130h-796z" />
<glyph unicode="&#x2018;" horiz-adv-x="271" d="M66 475l138 255h123l-103 -255h-158z" />
<glyph unicode="&#x2019;" horiz-adv-x="264" d="M72 475l103 255h158l-138 -255h-123z" />
<glyph unicode="&#x201a;" horiz-adv-x="285" d="M55 166h158l-138 -255h-123z" />
<glyph unicode="&#x201c;" horiz-adv-x="469" d="M264 475l138 255h123l-103 -255h-158zM66 475l138 255h123l-103 -255h-158z" />
<glyph unicode="&#x201d;" horiz-adv-x="462" d="M270 475l103 255h158l-138 -255h-123zM72 475l103 255h158l-138 -255h-123z" />
<glyph unicode="&#x201e;" horiz-adv-x="483" d="M253 166h158l-138 -255h-123zM55 166h158l-138 -255h-123z" />
<glyph unicode="&#x2022;" horiz-adv-x="468" d="M233 105q-77 0 -131.5 54.5t-54.5 131.5t54.5 131.5t131.5 54.5t131.5 -54.5t54.5 -131.5t-54.5 -131.5t-131.5 -54.5z" />
<glyph unicode="&#x2026;" horiz-adv-x="928" d="M653 0l31 164h158l-31 -164h-158zM329 0l31 164h158l-31 -164h-158zM5 0l31 164h158l-31 -164h-158z" />
<glyph unicode="&#x202f;" horiz-adv-x="183" />
<glyph unicode="&#x2039;" horiz-adv-x="388" d="M156 77l-130 205l191 206h164l-202 -213l130 -198h-153z" />
<glyph unicode="&#x203a;" horiz-adv-x="389" d="M3 77l202 213l-130 198h153l130 -205l-191 -206h-164z" />
<glyph unicode="&#x205f;" horiz-adv-x="229" />
<glyph unicode="&#x20ac;" horiz-adv-x="617" d="M23 232l19 91h55q1 22 10 68h-52l19 91h63q53 111 151.5 178t220.5 67q58 0 100 -11q20 -4 41 -11l-67 -140l-25 5q-28 5 -54 5q-108 0 -171 -93h217l-39 -91h-221q-11 -35 -11 -68h207l-39 -91h-152q32 -89 137 -89q29 0 67 8l30 7v-153l-31 -9q-40 -8 -83 -8 q-119 0 -204 66t-107 178h-81z" />
<glyph unicode="&#x2122;" horiz-adv-x="1062" d="M524 268l35 447h118l73 -175q2 -4 5 -15t4 -13q2 -4 4 -16h2q2 12 4 16q1 2 4 13t5 15l73 175h118l33 -447h-127l-10 174v22q0 7 1 10h-2l-51 -125h-98l-51 125h-2q1 -3 1 -10v-22l-12 -174h-127zM239 268v338h-142v109h408v-109h-140v-338h-126z" />
<glyph unicode="&#x25fc;" horiz-adv-x="515" d="M0 515h515v-515h-515v515z" />
</font>
</defs>
</svg>
